<?xml version="1.0" encoding="utf-8"?>
<!-- Generator: Adobe Illustrator 21.1.0, SVG Export Plug-In . SVG Version: 6.00 Build 0)  -->
<svg version="1.1" id="Capa_1" xmlns="http://www.w3.org/2000/svg" xmlns:xlink="http://www.w3.org/1999/xlink" x="0px" y="0px"
	 viewBox="0 0 375.7 314.5" style="enable-background:new 0 0 375.7 314.5;" xml:space="preserve">
<style type="text/css">
	.st0{fill:#FD512D;}
	.st1{fill:#3366CC;}
	.st2{fill:#402A5B;}
	.st3{fill:#FEAE01;}
	.st4{fill:#41DDCD;}
	.st5{enable-background:new    ;}
	.st6{fill:#FFFFFF;}
	.st7{fill:none;}
</style>
<circle class="st0" cx="218.6" cy="160.8" r="27.9"/>
<circle class="st1" cx="195.2" cy="220.1" r="27.9"/>
<circle class="st2" cx="306.5" cy="195.2" r="55.8"/>
<circle class="st3" cx="267.5" cy="71.1" r="65.5"/>
<circle class="st4" cx="102.3" cy="105.3" r="92.6"/>
<g class="st5">
	<path class="st6" d="M217.3,163.2c1.7-1.6,2.8-2.7,2.8-3.6c0-0.6-0.4-1.1-1-1.1c-0.5,0-0.9,0.3-1.2,0.7l-0.6-0.6
		c0.6-0.6,1.1-0.9,1.9-0.9c1.2,0,1.9,0.7,1.9,1.9c0,1.1-1,2.2-2.2,3.5c0.3,0,0.7-0.1,1-0.1h1.5v0.9h-4.1V163.2z"/>
</g>
<g class="st5">
	<path class="st6" d="M194.9,223.7c1.7-1.6,2.8-2.7,2.8-3.6c0-0.6-0.4-1.1-1-1.1c-0.5,0-0.9,0.3-1.2,0.7l-0.6-0.6
		c0.6-0.6,1.1-0.9,1.9-0.9c1.2,0,1.9,0.7,1.9,1.9c0,1.1-1,2.2-2.2,3.5c0.3,0,0.7-0.1,1-0.1h1.5v0.9h-4.1V223.7z"/>
</g>
<g class="st5">
	<path class="st6" d="M305.5,194.3L305.5,194.3c-0.5-0.4-0.8-0.8-0.8-1.5c0-1,0.8-1.6,1.8-1.6c1.1,0,1.8,0.7,1.8,1.6
		c0,0.6-0.4,1.1-0.8,1.4v0c0.6,0.3,1.1,0.8,1.1,1.6c0,0.9-0.8,1.7-2.1,1.7c-1.2,0-2.1-0.7-2.1-1.7
		C304.4,195.1,304.9,194.6,305.5,194.3z M306.5,196.8c0.6,0,1-0.3,1-0.9c0-0.7-0.6-0.9-1.5-1.2c-0.4,0.3-0.7,0.7-0.7,1.1
		C305.4,196.4,305.9,196.8,306.5,196.8z M307.4,192.9c0-0.5-0.3-0.9-0.9-0.9c-0.5,0-0.8,0.3-0.8,0.8c0,0.6,0.5,0.9,1.2,1.1
		C307.2,193.7,307.4,193.3,307.4,192.9z"/>
</g>
<g class="st5">
	<path class="st6" d="M263.3,72.4h1.4v-4h-1.1v-0.7c0.6-0.1,1-0.3,1.4-0.5h0.8v5.2h1.2v0.9h-3.7V72.4z"/>
	<path class="st6" d="M268.2,72.4h1.4v-4h-1.1v-0.7c0.6-0.1,1-0.3,1.4-0.5h0.8v5.2h1.2v0.9h-3.7V72.4z"/>
</g>
<g class="st5">
	<path class="st6" d="M93.2,108.6c3.4-3.3,5.5-5.4,5.5-7.3c0-1.3-0.7-2.1-2-2.1c-0.9,0-1.7,0.6-2.4,1.4l-1.2-1.2
		c1.1-1.2,2.2-1.9,3.9-1.9c2.3,0,3.9,1.5,3.9,3.7c0,2.2-2,4.4-4.4,6.9c0.6-0.1,1.4-0.1,2-0.1h3v1.9h-8.2V108.6z"/>
	<path class="st6" d="M103.1,108.6c3.4-3.3,5.5-5.4,5.5-7.3c0-1.3-0.7-2.1-2-2.1c-0.9,0-1.7,0.6-2.4,1.4l-1.2-1.2
		c1.1-1.2,2.2-1.9,3.9-1.9c2.3,0,3.9,1.5,3.9,3.7c0,2.2-2,4.4-4.4,6.9c0.6-0.1,1.4-0.1,2-0.1h3v1.9h-8.2V108.6z"/>
</g>
<g>
	<rect x="0" y="303.5" class="st4" width="10" height="10"/>
	<rect x="0" y="287.5" class="st3" width="10" height="10"/>
	<rect x="0" y="271.5" class="st2" width="10" height="10"/>
	<rect x="0" y="255.5" class="st1" width="10" height="10"/>
	<rect x="0" y="239.5" class="st0" width="10" height="10"/>
	<g>
		<rect x="19.6" y="255.5" class="st7" width="56" height="11"/>
		<g class="st5">
			<path d="M20.5,261.9h1.5v-4.7h-1.2v-0.5c0.6-0.1,1-0.3,1.3-0.5h0.6v5.7h1.3v0.7h-3.6V261.9z"/>
			<path d="M25.1,263.8c0.6-0.3,0.9-0.7,0.9-1.2c0,0-0.1,0-0.1,0c-0.3,0-0.6-0.2-0.6-0.6c0-0.4,0.3-0.6,0.6-0.6c0.4,0,0.7,0.4,0.7,1
				c0,0.9-0.5,1.5-1.3,1.9L25.1,263.8z"/>
			<path d="M27.8,261.3c0.4,0.4,0.9,0.7,1.6,0.7c0.8,0,1.4-0.6,1.4-1.5c0-0.9-0.5-1.4-1.4-1.4c-0.4,0-0.7,0.1-1.1,0.4l-0.4-0.3
				l0.2-3.1h3.2v0.7h-2.5l-0.2,1.9c0.3-0.2,0.6-0.3,1-0.3c1.1,0,2,0.6,2,2c0,1.4-1,2.2-2.1,2.2c-1,0-1.6-0.4-2.1-0.9L27.8,261.3z"/>
			<path d="M37.7,259.5c0-0.6-0.2-1.2-1-1.2c-0.6,0-1.1,0.3-1.4,0.5l-0.3-0.6c0.4-0.3,1.1-0.6,1.9-0.6c1.2,0,1.7,0.8,1.7,2v3h-0.7
				l-0.1-0.6h0c-0.5,0.4-1,0.7-1.6,0.7c-0.8,0-1.4-0.5-1.4-1.4C34.7,260.3,35.6,259.8,37.7,259.5z M36.4,262.1
				c0.5,0,0.9-0.2,1.3-0.6v-1.3c-1.6,0.2-2.2,0.6-2.2,1.2C35.5,261.9,35.9,262.1,36.4,262.1z"/>
			<path d="M42,261.9h1.5v-4.7h-1.2v-0.5c0.6-0.1,1-0.3,1.3-0.5h0.6v5.7h1.3v0.7H42V261.9z"/>
			<path d="M46.7,263.8c0.6-0.3,0.9-0.7,0.9-1.2c0,0-0.1,0-0.1,0c-0.3,0-0.6-0.2-0.6-0.6c0-0.4,0.3-0.6,0.6-0.6c0.4,0,0.7,0.4,0.7,1
				c0,0.9-0.5,1.5-1.3,1.9L46.7,263.8z"/>
			<path d="M49.7,261.6c0.3,0.3,0.6,0.5,1,0.5c0.9,0,1.7-0.7,1.7-2.7c-0.4,0.5-1,0.8-1.5,0.8c-1.1,0-1.8-0.7-1.8-2
				c0-1.2,0.9-2,1.9-2c1.3,0,2.2,1,2.2,3.1c0,2.6-1.2,3.5-2.4,3.5c-0.7,0-1.2-0.3-1.5-0.7L49.7,261.6z M52.4,258.7
				c-0.1-1.2-0.6-1.9-1.4-1.9c-0.6,0-1.1,0.6-1.1,1.4c0,0.8,0.4,1.3,1.2,1.3C51.5,259.5,52,259.3,52.4,258.7z"/>
			<path d="M54.7,261.6c0.3,0.3,0.6,0.5,1,0.5c0.9,0,1.7-0.7,1.7-2.7c-0.4,0.5-1,0.8-1.5,0.8c-1.1,0-1.8-0.7-1.8-2
				c0-1.2,0.9-2,1.9-2c1.3,0,2.2,1,2.2,3.1c0,2.6-1.2,3.5-2.4,3.5c-0.7,0-1.2-0.3-1.5-0.7L54.7,261.6z M57.4,258.7
				c-0.1-1.2-0.6-1.9-1.4-1.9c-0.6,0-1.1,0.6-1.1,1.4c0,0.8,0.4,1.3,1.2,1.3C56.4,259.5,56.9,259.3,57.4,258.7z"/>
		</g>
	</g>
	<g>
		<rect x="19.6" y="287" class="st7" width="56" height="11"/>
		<g class="st5">
			<path d="M20.1,293.6c1.9-1.9,3-3.1,3-4.1c0-0.7-0.4-1.3-1.2-1.3c-0.5,0-1,0.3-1.4,0.8l-0.5-0.5c0.5-0.6,1.1-1,1.9-1
				c1.2,0,1.9,0.7,1.9,1.9c0,1.2-1.1,2.4-2.6,4c0.3,0,0.7-0.1,1.1-0.1h1.8v0.7h-4.1V293.6z"/>
			<path d="M25.1,295.3c0.6-0.3,0.9-0.7,0.9-1.2c0,0-0.1,0-0.1,0c-0.3,0-0.6-0.2-0.6-0.6c0-0.4,0.3-0.6,0.6-0.6c0.4,0,0.7,0.4,0.7,1
				c0,0.9-0.5,1.5-1.3,1.9L25.1,295.3z"/>
			<path d="M27.8,292.8c0.4,0.4,0.9,0.7,1.6,0.7c0.8,0,1.4-0.6,1.4-1.5c0-0.9-0.5-1.4-1.4-1.4c-0.4,0-0.7,0.1-1.1,0.4l-0.4-0.3
				l0.2-3.1h3.2v0.7h-2.5l-0.2,1.9c0.3-0.2,0.6-0.3,1-0.3c1.1,0,2,0.6,2,2c0,1.4-1,2.2-2.1,2.2c-1,0-1.6-0.4-2.1-0.9L27.8,292.8z"/>
			<path d="M37.7,291c0-0.6-0.2-1.2-1-1.2c-0.6,0-1.1,0.3-1.4,0.5l-0.3-0.6c0.4-0.3,1.1-0.6,1.9-0.6c1.2,0,1.7,0.8,1.7,2v3h-0.7
				l-0.1-0.6h0c-0.5,0.4-1,0.7-1.6,0.7c-0.8,0-1.4-0.5-1.4-1.4C34.7,291.8,35.6,291.3,37.7,291z M36.4,293.6c0.5,0,0.9-0.2,1.3-0.6
				v-1.3c-1.6,0.2-2.2,0.6-2.2,1.2C35.5,293.4,35.9,293.6,36.4,293.6z"/>
			<path d="M41.7,293.6c1.9-1.9,3-3.1,3-4.1c0-0.7-0.4-1.3-1.2-1.3c-0.5,0-1,0.3-1.4,0.8l-0.5-0.5c0.5-0.6,1.1-1,1.9-1
				c1.2,0,1.9,0.7,1.9,1.9c0,1.2-1.1,2.4-2.6,4c0.3,0,0.7-0.1,1.1-0.1h1.8v0.7h-4.1V293.6z"/>
			<path d="M46.7,295.3c0.6-0.3,0.9-0.7,0.9-1.2c0,0-0.1,0-0.1,0c-0.3,0-0.6-0.2-0.6-0.6c0-0.4,0.3-0.6,0.6-0.6c0.4,0,0.7,0.4,0.7,1
				c0,0.9-0.5,1.5-1.3,1.9L46.7,295.3z"/>
			<path d="M49.7,293.1c0.3,0.3,0.6,0.5,1,0.5c0.9,0,1.7-0.7,1.7-2.7c-0.4,0.5-1,0.8-1.5,0.8c-1.1,0-1.8-0.7-1.8-2
				c0-1.2,0.9-2,1.9-2c1.3,0,2.2,1,2.2,3.1c0,2.6-1.2,3.5-2.4,3.5c-0.7,0-1.2-0.3-1.5-0.7L49.7,293.1z M52.4,290.2
				c-0.1-1.2-0.6-1.9-1.4-1.9c-0.6,0-1.1,0.6-1.1,1.4c0,0.8,0.4,1.3,1.2,1.3C51.5,291,52,290.8,52.4,290.2z"/>
			<path d="M54.7,293.1c0.3,0.3,0.6,0.5,1,0.5c0.9,0,1.7-0.7,1.7-2.7c-0.4,0.5-1,0.8-1.5,0.8c-1.1,0-1.8-0.7-1.8-2
				c0-1.2,0.9-2,1.9-2c1.3,0,2.2,1,2.2,3.1c0,2.6-1.2,3.5-2.4,3.5c-0.7,0-1.2-0.3-1.5-0.7L54.7,293.1z M57.4,290.2
				c-0.1-1.2-0.6-1.9-1.4-1.9c-0.6,0-1.1,0.6-1.1,1.4c0,0.8,0.4,1.3,1.2,1.3C56.4,291,56.9,290.8,57.4,290.2z"/>
		</g>
	</g>
	<g>
		<rect x="19.6" y="303.5" class="st7" width="56" height="11"/>
		<g class="st5">
			<path d="M24.3,307.6l-4.3,1.7v-0.7l2.1-0.8l1.3-0.5v0l-1.3-0.5L20,306v-0.7l4.3,1.7V307.6z"/>
			<path d="M27.3,309.3c0.4,0.4,0.9,0.8,1.6,0.8c0.8,0,1.3-0.5,1.3-1.2c0-0.8-0.5-1.3-2-1.3V307c1.4,0,1.8-0.5,1.8-1.2
				c0-0.6-0.4-1-1.1-1c-0.5,0-1,0.3-1.4,0.7l-0.4-0.5c0.5-0.5,1.1-0.8,1.8-0.8c1.1,0,1.9,0.6,1.9,1.6c0,0.8-0.5,1.3-1.2,1.5v0
				c0.8,0.2,1.4,0.7,1.4,1.6c0,1.1-0.9,1.8-2.1,1.8c-1,0-1.7-0.4-2.1-0.9L27.3,309.3z"/>
		</g>
	</g>
	<g>
		<rect x="19.6" y="272" class="st7" width="56" height="11"/>
		<g class="st5">
			<path d="M20.1,278.6c1.9-1.9,3-3.1,3-4.1c0-0.7-0.4-1.3-1.2-1.3c-0.5,0-1,0.3-1.4,0.8l-0.5-0.5c0.5-0.6,1.1-1,1.9-1
				c1.2,0,1.9,0.7,1.9,1.9c0,1.2-1.1,2.4-2.6,4c0.3,0,0.7-0.1,1.1-0.1h1.8v0.7h-4.1V278.6z"/>
			<path d="M25.1,280.3c0.6-0.3,0.9-0.7,0.9-1.2c0,0-0.1,0-0.1,0c-0.3,0-0.6-0.2-0.6-0.6c0-0.4,0.3-0.6,0.6-0.6c0.4,0,0.7,0.4,0.7,1
				c0,0.9-0.5,1.5-1.3,1.9L25.1,280.3z"/>
			<path d="M27.6,275.9c0-2.1,0.8-3.3,2-3.3c1.3,0,2,1.1,2,3.3s-0.8,3.3-2,3.3C28.3,279.2,27.6,278.1,27.6,275.9z M30.9,275.9
				c0-1.9-0.5-2.6-1.2-2.6c-0.7,0-1.2,0.8-1.2,2.6s0.5,2.7,1.2,2.7C30.4,278.6,30.9,277.8,30.9,275.9z"/>
			<path d="M37.7,276c0-0.6-0.2-1.2-1-1.2c-0.6,0-1.1,0.3-1.4,0.5l-0.3-0.6c0.4-0.3,1.1-0.6,1.9-0.6c1.2,0,1.7,0.8,1.7,2v3h-0.7
				l-0.1-0.6h0c-0.5,0.4-1,0.7-1.6,0.7c-0.8,0-1.4-0.5-1.4-1.4C34.7,276.8,35.6,276.3,37.7,276z M36.4,278.6c0.5,0,0.9-0.2,1.3-0.6
				v-1.3c-1.6,0.2-2.2,0.6-2.2,1.2C35.5,278.4,35.9,278.6,36.4,278.6z"/>
			<path d="M41.7,278.6c1.9-1.9,3-3.1,3-4.1c0-0.7-0.4-1.3-1.2-1.3c-0.5,0-1,0.3-1.4,0.8l-0.5-0.5c0.5-0.6,1.1-1,1.9-1
				c1.2,0,1.9,0.7,1.9,1.9c0,1.2-1.1,2.4-2.6,4c0.3,0,0.7-0.1,1.1-0.1h1.8v0.7h-4.1V278.6z"/>
			<path d="M46.7,280.3c0.6-0.3,0.9-0.7,0.9-1.2c0,0-0.1,0-0.1,0c-0.3,0-0.6-0.2-0.6-0.6c0-0.4,0.3-0.6,0.6-0.6c0.4,0,0.7,0.4,0.7,1
				c0,0.9-0.5,1.5-1.3,1.9L46.7,280.3z"/>
			<path d="M53.4,277.4h-0.9v1.8h-0.8v-1.8h-2.9v-0.5l2.7-4.1h0.9v4h0.9V277.4z M51.8,276.7v-1.8c0-0.3,0-0.9,0-1.2h0
				c-0.2,0.3-0.3,0.6-0.5,0.9l-1.5,2.2H51.8z"/>
			<path d="M54.7,278.1c0.3,0.3,0.6,0.5,1,0.5c0.9,0,1.7-0.7,1.7-2.7c-0.4,0.5-1,0.8-1.5,0.8c-1.1,0-1.8-0.7-1.8-2
				c0-1.2,0.9-2,1.9-2c1.3,0,2.2,1,2.2,3.1c0,2.6-1.2,3.5-2.4,3.5c-0.7,0-1.2-0.3-1.5-0.7L54.7,278.1z M57.4,275.2
				c-0.1-1.2-0.6-1.9-1.4-1.9c-0.6,0-1.1,0.6-1.1,1.4c0,0.8,0.4,1.3,1.2,1.3C56.4,276,56.9,275.8,57.4,275.2z"/>
		</g>
	</g>
	<g>
		<rect x="19.6" y="239" class="st7" width="56" height="11"/>
		<g class="st5">
			<path d="M20.5,245.4h1.5v-4.7h-1.2v-0.5c0.6-0.1,1-0.3,1.3-0.5h0.6v5.7h1.3v0.7h-3.6V245.4z"/>
			<path d="M25.1,247.3c0.6-0.3,0.9-0.7,0.9-1.2c0,0-0.1,0-0.1,0c-0.3,0-0.6-0.2-0.6-0.6c0-0.4,0.3-0.6,0.6-0.6c0.4,0,0.7,0.4,0.7,1
				c0,0.9-0.5,1.5-1.3,1.9L25.1,247.3z"/>
			<path d="M27.6,242.9c0-2.1,0.8-3.3,2-3.3c1.3,0,2,1.1,2,3.3s-0.8,3.3-2,3.3C28.3,246.2,27.6,245.1,27.6,242.9z M30.9,242.9
				c0-1.9-0.5-2.6-1.2-2.6c-0.7,0-1.2,0.8-1.2,2.6s0.5,2.7,1.2,2.7C30.4,245.6,30.9,244.8,30.9,242.9z"/>
			<path d="M37.7,243c0-0.6-0.2-1.2-1-1.2c-0.6,0-1.1,0.3-1.4,0.5l-0.3-0.6c0.4-0.3,1.1-0.6,1.9-0.6c1.2,0,1.7,0.8,1.7,2v3h-0.7
				l-0.1-0.6h0c-0.5,0.4-1,0.7-1.6,0.7c-0.8,0-1.4-0.5-1.4-1.4C34.7,243.8,35.6,243.3,37.7,243z M36.4,245.6c0.5,0,0.9-0.2,1.3-0.6
				v-1.3c-1.6,0.2-2.2,0.6-2.2,1.2C35.5,245.4,35.9,245.6,36.4,245.6z"/>
			<path d="M42,245.4h1.5v-4.7h-1.2v-0.5c0.6-0.1,1-0.3,1.3-0.5h0.6v5.7h1.3v0.7H42V245.4z"/>
			<path d="M46.7,247.3c0.6-0.3,0.9-0.7,0.9-1.2c0,0-0.1,0-0.1,0c-0.3,0-0.6-0.2-0.6-0.6c0-0.4,0.3-0.6,0.6-0.6c0.4,0,0.7,0.4,0.7,1
				c0,0.9-0.5,1.5-1.3,1.9L46.7,247.3z"/>
			<path d="M53.4,244.4h-0.9v1.8h-0.8v-1.8h-2.9v-0.5l2.7-4.1h0.9v4h0.9V244.4z M51.8,243.7v-1.8c0-0.3,0-0.9,0-1.2h0
				c-0.2,0.3-0.3,0.6-0.5,0.9l-1.5,2.2H51.8z"/>
			<path d="M54.7,245.1c0.3,0.3,0.6,0.5,1,0.5c0.9,0,1.7-0.7,1.7-2.7c-0.4,0.5-1,0.8-1.5,0.8c-1.1,0-1.8-0.7-1.8-2
				c0-1.2,0.9-2,1.9-2c1.3,0,2.2,1,2.2,3.1c0,2.6-1.2,3.5-2.4,3.5c-0.7,0-1.2-0.3-1.5-0.7L54.7,245.1z M57.4,242.2
				c-0.1-1.2-0.6-1.9-1.4-1.9c-0.6,0-1.1,0.6-1.1,1.4c0,0.8,0.4,1.3,1.2,1.3C56.4,243,56.9,242.8,57.4,242.2z"/>
		</g>
	</g>
	<rect x="0" y="219.5" class="st7" width="114" height="22.8"/>
	<g class="st5">
		<path d="M0.8,223.8c0-1.8,0.5-3.2,1.3-4.5l0.5,0.2c-0.8,1.3-1.1,2.8-1.1,4.3c0,1.5,0.4,3,1.1,4.3l-0.5,0.2
			C1.3,227,0.8,225.6,0.8,223.8z"/>
		<path d="M3.9,220h1l1.3,3.5l0.5,1.3h0l0.5-1.3l1.3-3.5h1v6.6H8.6V223c0-0.6,0.1-1.4,0.1-1.9h0l-0.5,1.5l-1.3,3.4H6.4l-1.3-3.4
			L4.6,221h0c0,0.6,0.1,1.4,0.1,1.9v3.6H3.9V220z"/>
		<path d="M10.9,220.2c0-0.3,0.3-0.5,0.6-0.5s0.6,0.2,0.6,0.5c0,0.3-0.3,0.5-0.6,0.5S10.9,220.5,10.9,220.2z M11.1,221.7h0.8v4.9
			h-0.8V221.7z"/>
		<path d="M13.5,219.5h0.8v6.2c0,0.3,0.1,0.4,0.2,0.4c0,0,0.1,0,0.2,0l0.1,0.6c-0.1,0-0.2,0.1-0.5,0.1c-0.6,0-0.9-0.4-0.9-1.1V219.5
			z"/>
		<path d="M16.1,219.5h0.8v6.2c0,0.3,0.1,0.4,0.2,0.4c0,0,0.1,0,0.2,0l0.1,0.6c-0.1,0-0.2,0.1-0.5,0.1c-0.6,0-0.9-0.4-0.9-1.1V219.5
			z"/>
		<path d="M20.5,221.6c1.2,0,2.2,0.9,2.2,2.6c0,1.6-1.1,2.5-2.2,2.5s-2.2-0.9-2.2-2.5C18.3,222.5,19.3,221.6,20.5,221.6z M20.5,226
			c0.8,0,1.4-0.8,1.4-1.9c0-1.1-0.6-1.9-1.4-1.9c-0.8,0-1.4,0.8-1.4,1.9C19.1,225.3,19.7,226,20.5,226z"/>
		<path d="M24,221.7h0.7l0.1,0.7h0c0.5-0.5,1-0.8,1.6-0.8c1,0,1.5,0.7,1.5,1.9v3.1h-0.8v-3c0-0.9-0.3-1.3-0.9-1.3
			c-0.5,0-0.8,0.3-1.3,0.8v3.5H24V221.7z"/>
		<path d="M31.3,221.6c1.2,0,1.9,0.9,1.9,2.3c0,0.2,0,0.3,0,0.4H30c0.1,1,0.7,1.7,1.6,1.7c0.5,0,0.8-0.1,1.2-0.4l0.3,0.5
			c-0.4,0.3-0.9,0.5-1.6,0.5c-1.3,0-2.3-0.9-2.3-2.5C29.2,222.6,30.2,221.6,31.3,221.6z M32.6,223.8c0-1-0.4-1.5-1.2-1.5
			c-0.7,0-1.3,0.6-1.4,1.5H32.6z"/>
		<path d="M34.3,225.5c0.4,0.3,0.8,0.6,1.4,0.6c0.6,0,1-0.3,1-0.8c0-0.5-0.6-0.7-1.1-0.9c-0.7-0.2-1.4-0.6-1.4-1.4
			c0-0.8,0.6-1.4,1.7-1.4c0.6,0,1.1,0.3,1.5,0.5l-0.4,0.5c-0.3-0.3-0.7-0.4-1.1-0.4c-0.6,0-0.9,0.3-0.9,0.7c0,0.4,0.5,0.6,1.1,0.8
			c0.7,0.3,1.5,0.5,1.5,1.5c0,0.8-0.6,1.4-1.8,1.4c-0.7,0-1.3-0.3-1.8-0.7L34.3,225.5z"/>
		<path d="M42.4,221.6c0.6,0,0.9,0.2,1.4,0.6l0-0.8v-1.9h0.8v7.1h-0.7l-0.1-0.6h0c-0.4,0.4-0.9,0.7-1.5,0.7c-1.2,0-2-0.9-2-2.5
			C40.3,222.6,41.3,221.6,42.4,221.6z M42.5,226c0.4,0,0.8-0.2,1.2-0.7v-2.5c-0.4-0.4-0.8-0.5-1.2-0.5c-0.8,0-1.4,0.8-1.4,1.9
			C41.2,225.3,41.7,226,42.5,226z"/>
		<path d="M48.1,221.6c1.2,0,1.9,0.9,1.9,2.3c0,0.2,0,0.3,0,0.4h-3.3c0.1,1,0.7,1.7,1.6,1.7c0.5,0,0.8-0.1,1.2-0.4l0.3,0.5
			c-0.4,0.3-0.9,0.5-1.6,0.5c-1.3,0-2.3-0.9-2.3-2.5C45.9,222.6,46.9,221.6,48.1,221.6z M49.3,223.8c0-1-0.4-1.5-1.2-1.5
			c-0.7,0-1.3,0.6-1.4,1.5H49.3z"/>
		<path d="M54,227v1.6h-0.8v-6.9h0.7l0.1,0.6h0c0.4-0.4,1-0.7,1.5-0.7c1.2,0,1.9,1,1.9,2.5c0,1.6-1,2.6-2.1,2.6
			c-0.4,0-0.9-0.2-1.3-0.6L54,227z M55.2,226c0.8,0,1.4-0.7,1.4-1.9c0-1.1-0.4-1.8-1.3-1.8c-0.4,0-0.8,0.2-1.3,0.7v2.5
			C54.5,225.9,54.9,226,55.2,226z"/>
		<path d="M60.6,221.6c1.2,0,1.9,0.9,1.9,2.3c0,0.2,0,0.3,0,0.4h-3.3c0.1,1,0.7,1.7,1.6,1.7c0.5,0,0.8-0.1,1.2-0.4l0.3,0.5
			c-0.4,0.3-0.9,0.5-1.6,0.5c-1.3,0-2.3-0.9-2.3-2.5C58.4,222.6,59.5,221.6,60.6,221.6z M61.8,223.8c0-1-0.4-1.5-1.2-1.5
			c-0.7,0-1.3,0.6-1.4,1.5H61.8z"/>
		<path d="M63.6,225.5c0.4,0.3,0.8,0.6,1.4,0.6c0.6,0,1-0.3,1-0.8c0-0.5-0.6-0.7-1.1-0.9c-0.7-0.2-1.4-0.6-1.4-1.4
			c0-0.8,0.6-1.4,1.7-1.4c0.6,0,1.1,0.3,1.5,0.5l-0.4,0.5c-0.3-0.3-0.7-0.4-1.1-0.4c-0.6,0-0.9,0.3-0.9,0.7c0,0.4,0.5,0.6,1.1,0.8
			c0.7,0.3,1.5,0.5,1.5,1.5c0,0.8-0.6,1.4-1.8,1.4c-0.7,0-1.3-0.3-1.8-0.7L63.6,225.5z"/>
		<path d="M69.8,221.6c1.2,0,2.2,0.9,2.2,2.6c0,1.6-1.1,2.5-2.2,2.5s-2.2-0.9-2.2-2.5C67.6,222.5,68.6,221.6,69.8,221.6z M69.8,226
			c0.8,0,1.4-0.8,1.4-1.9c0-1.1-0.6-1.9-1.4-1.9c-0.8,0-1.4,0.8-1.4,1.9C68.4,225.3,69,226,69.8,226z"/>
		<path d="M73.2,225.5c0.4,0.3,0.8,0.6,1.4,0.6c0.6,0,1-0.3,1-0.8c0-0.5-0.6-0.7-1.1-0.9c-0.7-0.2-1.4-0.6-1.4-1.4
			c0-0.8,0.6-1.4,1.7-1.4c0.6,0,1.1,0.3,1.5,0.5l-0.4,0.5c-0.3-0.3-0.7-0.4-1.1-0.4c-0.6,0-0.9,0.3-0.9,0.7c0,0.4,0.5,0.6,1.1,0.8
			c0.7,0.3,1.5,0.5,1.5,1.5c0,0.8-0.6,1.4-1.8,1.4c-0.7,0-1.3-0.3-1.8-0.7L73.2,225.5z"/>
		<path d="M78.2,223.8c0-1.5-0.4-3-1.1-4.3l0.5-0.2c0.8,1.3,1.3,2.8,1.3,4.5s-0.5,3.2-1.3,4.5l-0.5-0.2
			C77.9,226.8,78.2,225.3,78.2,223.8z"/>
	</g>
</g>
</svg>
