<?xml version="1.0" encoding="utf-8"?>
<!-- Generator: Adobe Illustrator 21.1.0, SVG Export Plug-In . SVG Version: 6.00 Build 0)  -->
<svg version="1.1" id="Capa_1" xmlns="http://www.w3.org/2000/svg" xmlns:xlink="http://www.w3.org/1999/xlink" x="0px" y="0px"
	 viewBox="0 0 829.5 247.5" style="enable-background:new 0 0 829.5 247.5;" xml:space="preserve">
<style type="text/css">
	.st0{fill:#FFFFFF;}
	.st1{fill:#FEC901;}
	.st2{fill:#BF453E;}
	.st3{fill:#81384E;}
	.st4{fill:#FD512D;}
	.st5{fill:#FD701E;}
	.st6{fill:#FEAE01;}
	.st7{fill:#FE8F10;}
	.st8{fill:none;stroke:#D2D2D2;stroke-miterlimit:10;}
	.st9{fill:#432C5F;}
	.st10{fill:#FFE400;}
	.st11{fill:#FFFF00;}
</style>
<path class="st0" d="M144.8,31.8c-0.1,33.7,0,67.3-0.1,101c28.4,0,56.8,0,85.1,0c0-33.7,0.1-67.3,0-101
	C201.5,31.9,173.2,31.8,144.8,31.8"/>
<path class="st0" d="M238.7,32.6c0,35.6,0,71.2,0,106.8c28.4,0,56.7,0,85.1,0c0-35.6,0-71.2,0-106.8
	C295.4,32.6,267.1,32.6,238.7,32.6"/>
<path class="st0" d="M332.9,34.4c0,35,0,70,0,105c28.4,0,56.7,0,85.1,0c0-35,0-70,0-105C389.6,34.4,361.2,34.4,332.9,34.4"/>
<path class="st1" d="M709,36.9c0,34.2,0,68.3,0,102.5c28.4,0,56.8,0,85.1,0c0-34.2,0-68.3,0-102.5C765.8,36.9,737.4,36.9,709,36.9"
	/>
<path class="st0" d="M426.8,47.1c0,32.8,0,65.6,0,98.3c28.4,0,56.8,0,85.1,0c0-32.8,0-65.6,0-98.4C483.5,47,455.1,47,426.8,47.1"/>
<path class="st0" d="M615,47.7c-0.2,28.8-0.1,57.6,0,86.4c28.3-0.1,56.6,0,84.9,0c0.1-28.8,0.2-57.6,0-86.4
	C671.5,47.8,643.3,47.8,615,47.7"/>
<path class="st0" d="M557.6,51c1,0.3,2.1,0.5,3.2,0.7c-0.9,1.9-2,3.8-1.9,5.9c1.4-2.2,2.4-4.6,3.3-7.1
	C560.7,50.7,559.1,50.8,557.6,51"/>
<path class="st0" d="M562.6,51.9c0.7,0,2-0.1,2.7-0.1c-0.7,2-1.8,3.8-2.9,5.5c1.1,0,3.2,0.1,4.2,0.1c-0.4-0.4-1.2-1.3-1.6-1.8
	c0.5-1.1,1.1-2.2,1.6-3.3c-0.5-0.5-1.4-1.6-1.9-2.2C564,50.7,563.3,51.3,562.6,51.9"/>
<path class="st0" d="M566.8,53.4c0.2,1.7,1.4,3,2.2,4.5c1-1,2.7-1.8,2.9-3.4c0.5-1.9-1.2-3.2-2.2-4.5
	C568.7,51,567.4,51.9,566.8,53.4"/>
<path class="st0" d="M521,58.2c-0.1,24.2-0.1,48.3,0,72.5c28.3,0.3,56.6,0.2,85,0c0.1-24.2,0.2-48.3,0-72.5
	C577.6,58,549.3,57.9,521,58.2"/>
<path class="st0" d="M650.7,142.2c2.7,0,5.3,0.3,7.9,0.6c0-0.3,0.1-0.8,0.1-1.1l-1.8,0.1c0.6-1.4,2.2-2.7,2-4.4
	c-1.1-1.2-2.8-0.8-4.2-0.9c1.1,0.4,2.2,0.9,3.4,1.3c-0.7,1.4-1.5,2.7-2.2,4.1c-1-1.5-2.1-2.9-3.6-4c0.5-0.5,1.4-1.4,1.9-1.9
	C651.1,136.5,649.4,139.3,650.7,142.2"/>
<path class="st0" d="M659.6,136.8c0.6,0.2,1.8,0.5,2.4,0.7c-1.1,1.5-0.6,2.9,0.9,3.9c-0.9,0.2-2.6,0.5-3.4,0.7
	c1.4,0.5,2.9,0.9,4.2,0.1c0.1-1,0.1-2-0.1-3C664.1,136.4,661.7,136,659.6,136.8"/>
<path class="st0" d="M373.1,29.5C373.7,30.1,373.7,30.1,373.1,29.5z"/>
<path class="st0" d="M569.1,51c0.6,0.8,1.2,1.6,1.8,2.5c0,1.3-1.2,2.2-1.8,3.3C568.7,54.9,568.6,52.9,569.1,51z"/>
<path class="st0" d="M569.1,136.4C569.7,137,569.7,137,569.1,136.4z"/>
<path class="st0" d="M183,138.4c1.6-0.5,2.1,0.1,1.7,1.7C183.1,140.7,182.5,140.1,183,138.4z"/>
<path class="st0" d="M651.9,139.8c1.4-0.4,1.9,0.1,1.5,1.5C651.9,141.6,651.4,141.1,651.9,139.8z"/>
<path class="st2" d="M238.7,32.6c28.4,0,56.7,0,85.1,0c0,35.6,0,71.2,0,106.8c-28.4,0-56.7,0-85.1,0
	C238.7,103.8,238.7,68.2,238.7,32.6z"/>
<g id="_x23_08306bff">
	<path class="st3" d="M144.8,31.8c28.3,0,56.7,0.1,85,0c0.1,33.7,0,67.3,0,101c-28.4,0-56.8,0-85.1,0
		C144.8,99.1,144.7,65.5,144.8,31.8z"/>
</g>
<g id="_x23_68719eff">
	<path class="st4" d="M332.9,34.4c28.4,0,56.7,0,85.1,0c0,35,0,70,0,105c-28.4,0-56.7,0-85.1,0C332.9,104.4,332.9,69.4,332.9,34.4z"
		/>
</g>
<g id="_x23_878eb3ff">
	<path class="st5" d="M426.8,47.1c28.4-0.1,56.8,0,85.1,0c0,32.8,0,65.6,0,98.4c-28.4,0-56.7,0-85.1,0
		C426.7,112.6,426.8,79.8,426.8,47.1z"/>
</g>
<g id="_x23_8c93b7ff">
	<path class="st6" d="M615,47.7c28.3,0.1,56.6,0.1,84.9,0c0.2,28.8,0.1,57.6,0,86.4c-28.3,0-56.6-0.1-84.9,0
		C614.8,105.3,614.8,76.5,615,47.7z"/>
</g>
<g id="_x23_d6dbe9ff">
	<path class="st7" d="M521,58.2c28.3-0.2,56.6-0.2,84.9,0c0.3,24.2,0.1,48.3,0,72.5c-28.3,0.2-56.7,0.2-85,0
		C520.9,106.5,520.9,82.3,521,58.2z"/>
</g>
<line class="st8" x1="46.6" y1="31.8" x2="46.6" y2="203.6"/>
<line class="st8" x1="796.1" y1="203.6" x2="40.2" y2="203.6"/>
<line class="st8" x1="796.4" y1="209.6" x2="796.4" y2="203.1"/>
<line class="st8" x1="751.6" y1="210.6" x2="751.6" y2="204.1"/>
<line class="st8" x1="657.2" y1="210.6" x2="657.2" y2="204.1"/>
<line class="st8" x1="563.9" y1="210.6" x2="563.9" y2="204.1"/>
<line class="st8" x1="469.4" y1="210.6" x2="469.4" y2="204.1"/>
<line class="st8" x1="375.2" y1="210.6" x2="375.2" y2="204.1"/>
<line class="st8" x1="281.2" y1="210.6" x2="281.2" y2="204.1"/>
<line class="st8" x1="187.6" y1="210.6" x2="187.6" y2="204.1"/>
<line class="st8" x1="93.2" y1="210.6" x2="93.2" y2="204.1"/>
<line class="st8" x1="39.8" y1="189.3" x2="46.3" y2="189.3"/>
<line class="st8" x1="39.8" y1="175" x2="46.3" y2="175"/>
<line class="st8" x1="39.8" y1="160.7" x2="46.3" y2="160.7"/>
<line class="st8" x1="39.8" y1="146.3" x2="46.3" y2="146.3"/>
<line class="st8" x1="39.8" y1="132" x2="46.3" y2="132"/>
<line class="st8" x1="39.8" y1="117.7" x2="46.3" y2="117.7"/>
<line class="st8" x1="39.8" y1="103.4" x2="46.3" y2="103.4"/>
<line class="st8" x1="39.8" y1="89" x2="46.3" y2="89"/>
<line class="st8" x1="39.8" y1="74.7" x2="46.3" y2="74.7"/>
<line class="st8" x1="39.8" y1="60.4" x2="46.3" y2="60.4"/>
<line class="st8" x1="39.8" y1="46.1" x2="46.3" y2="46.1"/>
<line class="st8" x1="39.8" y1="31.7" x2="46.3" y2="31.7"/>
<g>
	<g>
		<path d="M23.3,143.6c-0.3-0.3-0.7-0.5-1.1-0.5c-0.9,0-1.6,0.6-1.7,2.6c0.4-0.5,1-0.8,1.5-0.8c1.2,0,2,0.7,2,2.2
			c0,1.4-1,2.3-2.2,2.3c-1.4,0-2.5-1.1-2.5-3.4c0-2.7,1.3-3.8,2.8-3.8c0.8,0,1.5,0.4,1.9,0.8L23.3,143.6z M22.9,147
			c0-0.8-0.4-1.2-1.1-1.2c-0.4,0-0.9,0.2-1.3,0.8c0.1,1.2,0.6,1.8,1.3,1.8C22.4,148.3,22.9,147.9,22.9,147z"/>
		<path d="M24.9,145.7c0-2.4,0.9-3.6,2.4-3.6s2.4,1.2,2.4,3.6c0,2.4-0.9,3.7-2.4,3.7S24.9,148,24.9,145.7z M28.5,145.7
			c0-2-0.5-2.6-1.2-2.6c-0.7,0-1.2,0.6-1.2,2.6s0.5,2.7,1.2,2.7C28,148.3,28.5,147.6,28.5,145.7z"/>
		<path d="M30.6,145.7c0-2.4,0.9-3.6,2.4-3.6c1.5,0,2.4,1.2,2.4,3.6c0,2.4-0.9,3.7-2.4,3.7C31.5,149.3,30.6,148,30.6,145.7z
			 M34.1,145.7c0-2-0.5-2.6-1.2-2.6c-0.7,0-1.2,0.6-1.2,2.6s0.5,2.7,1.2,2.7C33.6,148.3,34.1,147.6,34.1,145.7z"/>
	</g>
</g>
<g>
	<g>
		<path d="M19.7,177c0.4,0.4,0.9,0.7,1.6,0.7c0.8,0,1.4-0.5,1.4-1.3c0-0.8-0.5-1.3-1.3-1.3c-0.5,0-0.7,0.1-1.1,0.4l-0.6-0.4l0.2-3.5
			h3.7v1.1H21l-0.1,1.7c0.3-0.1,0.6-0.2,0.9-0.2c1.2,0,2.2,0.7,2.2,2.2c0,1.5-1.2,2.4-2.5,2.4c-1.1,0-1.9-0.5-2.4-1L19.7,177z"/>
		<path d="M28.9,173.1c-0.3-0.3-0.7-0.5-1.1-0.5c-0.9,0-1.6,0.6-1.7,2.6c0.4-0.5,1-0.8,1.5-0.8c1.2,0,2,0.7,2,2.2
			c0,1.4-1,2.3-2.2,2.3c-1.4,0-2.5-1.1-2.5-3.4c0-2.7,1.3-3.8,2.8-3.8c0.8,0,1.5,0.4,1.9,0.8L28.9,173.1z M28.5,176.5
			c0-0.8-0.4-1.2-1.1-1.2c-0.4,0-0.9,0.2-1.3,0.8c0.1,1.2,0.6,1.8,1.3,1.8C28.1,177.8,28.5,177.4,28.5,176.5z"/>
		<path d="M30.6,175.2c0-2.4,0.9-3.6,2.4-3.6c1.5,0,2.4,1.2,2.4,3.6c0,2.4-0.9,3.7-2.4,3.7C31.5,178.8,30.6,177.5,30.6,175.2z
			 M34.1,175.2c0-2-0.5-2.6-1.2-2.6c-0.7,0-1.2,0.6-1.2,2.6s0.5,2.7,1.2,2.7C33.6,177.8,34.1,177.1,34.1,175.2z"/>
	</g>
</g>
<g>
	<g>
		<path d="M19.7,190.9c0.4,0.4,0.9,0.7,1.6,0.7c0.8,0,1.4-0.5,1.4-1.3c0-0.8-0.5-1.3-1.3-1.3c-0.5,0-0.7,0.1-1.1,0.4l-0.6-0.4
			l0.2-3.5h3.7v1.1H21l-0.1,1.7c0.3-0.1,0.6-0.2,0.9-0.2c1.2,0,2.2,0.7,2.2,2.2c0,1.5-1.2,2.4-2.5,2.4c-1.1,0-1.9-0.5-2.4-1
			L19.7,190.9z"/>
		<path d="M29.8,190.8H29v1.8h-1.2v-1.8h-3.1v-0.9l2.8-4.3H29v4.2h0.9V190.8z M27.8,189.8v-1.6c0-0.4,0-1,0.1-1.5h0
			c-0.2,0.4-0.4,0.7-0.6,1.1l-1.3,1.9H27.8z"/>
		<path d="M30.6,189.1c0-2.4,0.9-3.6,2.4-3.6c1.5,0,2.4,1.2,2.4,3.6c0,2.4-0.9,3.7-2.4,3.7C31.5,192.7,30.6,191.4,30.6,189.1z
			 M34.1,189.1c0-2-0.5-2.6-1.2-2.6c-0.7,0-1.2,0.6-1.2,2.6s0.5,2.7,1.2,2.7C33.6,191.7,34.1,191,34.1,189.1z"/>
	</g>
</g>
<g>
	<g>
		<path d="M30.6,203.1c0-2.4,0.9-3.6,2.4-3.6c1.5,0,2.4,1.2,2.4,3.6c0,2.4-0.9,3.7-2.4,3.7C31.5,206.8,30.6,205.5,30.6,203.1z
			 M34.1,203.1c0-2-0.5-2.6-1.2-2.6c-0.7,0-1.2,0.6-1.2,2.6s0.5,2.7,1.2,2.7C33.6,205.8,34.1,205.1,34.1,203.1z"/>
	</g>
</g>
<g>
	<g>
		<path d="M83.3,221.3c1.8-1.7,2.9-2.8,2.9-3.8c0-0.7-0.4-1.1-1-1.1c-0.5,0-0.9,0.3-1.2,0.7l-0.6-0.6c0.6-0.6,1.2-1,2-1
			c1.2,0,2,0.8,2,1.9c0,1.1-1,2.3-2.3,3.6c0.3,0,0.8-0.1,1.1-0.1h1.6v1h-4.3V221.3z"/>
		<path d="M88.5,218.8c0-2.1,0.8-3.3,2.2-3.3s2.2,1.1,2.2,3.3c0,2.1-0.8,3.3-2.2,3.3S88.5,220.9,88.5,218.8z M91.7,218.8
			c0-1.8-0.4-2.4-1.1-2.4c-0.6,0-1.1,0.6-1.1,2.4s0.5,2.4,1.1,2.4C91.3,221.2,91.7,220.6,91.7,218.8z"/>
		<path d="M93.6,218.8c0-2.1,0.8-3.3,2.2-3.3s2.2,1.1,2.2,3.3c0,2.1-0.8,3.3-2.2,3.3S93.6,220.9,93.6,218.8z M96.8,218.8
			c0-1.8-0.4-2.4-1.1-2.4c-0.6,0-1.1,0.6-1.1,2.4s0.5,2.4,1.1,2.4C96.4,221.2,96.8,220.6,96.8,218.8z"/>
		<path d="M99.4,220.7c0.2,0.3,0.6,0.5,1,0.5c0.8,0,1.4-0.6,1.5-2.3c-0.4,0.5-0.9,0.7-1.4,0.7c-1.1,0-1.8-0.6-1.8-2
			c0-1.3,0.9-2.1,2-2.1c1.2,0,2.3,1,2.3,3.1c0,2.5-1.2,3.5-2.5,3.5c-0.8,0-1.3-0.3-1.7-0.7L99.4,220.7z M101.9,218
			c-0.1-1.1-0.6-1.6-1.2-1.6c-0.5,0-0.9,0.4-0.9,1.2c0,0.7,0.4,1.1,1,1.1C101.2,218.7,101.6,218.5,101.9,218z"/>
	</g>
</g>
<g>
	<g>
		<path d="M89.4,51.4h-3.2v-0.7h4.1v0.5c-1.5,1.9-1.8,3.4-1.9,5.9h-0.8C87.6,54.6,88.1,53.1,89.4,51.4z"/>
		<path d="M91.5,56.4H93v-4.7h-1.2v-0.5c0.6-0.1,1-0.3,1.3-0.5h0.6v5.7h1.3V57h-3.6V56.4z"/>
		<path d="M100.4,55.3h-0.9V57h-0.8v-1.8h-2.9v-0.5l2.7-4.1h0.9v4h0.9V55.3z M98.7,54.6v-1.8c0-0.3,0-0.9,0-1.2h0
			c-0.2,0.3-0.3,0.6-0.5,0.9l-1.5,2.2H98.7z"/>
	</g>
</g>
<g>
	<g>
		<path d="M89.8,136.7c-0.3-0.3-0.7-0.5-1-0.5c-0.9,0-1.6,0.7-1.7,2.7c0.4-0.5,1-0.8,1.5-0.8c1.1,0,1.8,0.7,1.8,2c0,1.2-0.9,2-1.9,2
			c-1.2,0-2.2-1-2.2-3.1c0-2.6,1.2-3.5,2.4-3.5c0.7,0,1.2,0.3,1.5,0.7L89.8,136.7z M89.6,140c0-0.8-0.4-1.3-1.2-1.3
			c-0.4,0-0.9,0.2-1.3,0.8c0.1,1.2,0.6,1.9,1.4,1.9C89.1,141.4,89.6,140.9,89.6,140z"/>
		<path d="M91.1,141.5c1.9-1.9,3-3.1,3-4.1c0-0.7-0.4-1.3-1.2-1.3c-0.5,0-1,0.3-1.4,0.8l-0.5-0.5c0.5-0.6,1.1-1,1.9-1
			c1.2,0,1.9,0.7,1.9,1.9c0,1.2-1.1,2.4-2.6,4c0.3,0,0.7-0.1,1.1-0.1h1.8v0.7h-4.1V141.5z"/>
		<path d="M96.5,141.3H98v-4.7h-1.2v-0.5c0.6-0.1,1-0.3,1.3-0.5h0.6v5.7h1.3v0.7h-3.6V141.3z"/>
	</g>
</g>
<g>
	<g>
		<path d="M183.7,21.3h-3.2v-0.7h4.1v0.5c-1.5,1.9-1.8,3.4-1.9,5.9h-0.8C182,24.6,182.5,23.1,183.7,21.3z"/>
		<path d="M185.7,25.7c0.4,0.4,0.9,0.7,1.6,0.7c0.8,0,1.4-0.6,1.4-1.5c0-0.9-0.5-1.4-1.4-1.4c-0.4,0-0.7,0.1-1.1,0.4l-0.4-0.3
			l0.2-3.1h3.2v0.7h-2.5l-0.2,1.9c0.3-0.2,0.6-0.3,1-0.3c1.1,0,2,0.6,2,2c0,1.4-1,2.2-2.1,2.2c-1,0-1.6-0.4-2.1-0.9L185.7,25.7z"/>
		<path d="M194,21.7c-0.3-0.3-0.7-0.5-1-0.5c-0.9,0-1.6,0.7-1.7,2.7c0.4-0.5,1-0.8,1.5-0.8c1.1,0,1.8,0.7,1.8,2c0,1.2-0.9,2-1.9,2
			c-1.2,0-2.2-1-2.2-3.1c0-2.6,1.2-3.5,2.4-3.5c0.7,0,1.2,0.3,1.5,0.7L194,21.7z M193.8,25.1c0-0.8-0.4-1.3-1.2-1.3
			c-0.4,0-0.9,0.2-1.3,0.8c0.1,1.2,0.6,1.9,1.4,1.9C193.3,26.5,193.8,25.9,193.8,25.1z"/>
	</g>
</g>
<g>
	<g>
		<path d="M183.8,136.7c-0.3-0.3-0.7-0.5-1-0.5c-0.9,0-1.6,0.7-1.7,2.7c0.4-0.5,1-0.8,1.5-0.8c1.1,0,1.8,0.7,1.8,2
			c0,1.2-0.9,2-1.9,2c-1.2,0-2.2-1-2.2-3.1c0-2.6,1.2-3.5,2.4-3.5c0.7,0,1.2,0.3,1.5,0.7L183.8,136.7z M183.6,140
			c0-0.8-0.4-1.3-1.2-1.3c-0.4,0-0.9,0.2-1.3,0.8c0.1,1.2,0.6,1.9,1.4,1.9C183.1,141.4,183.6,140.9,183.6,140z"/>
		<path d="M185.1,141.5c1.9-1.9,3-3.1,3-4.1c0-0.7-0.4-1.3-1.2-1.3c-0.5,0-1,0.3-1.4,0.8l-0.5-0.5c0.5-0.6,1.1-1,1.9-1
			c1.2,0,1.9,0.7,1.9,1.9c0,1.2-1.1,2.4-2.6,4c0.3,0,0.7-0.1,1.1-0.1h1.8v0.7h-4.1V141.5z"/>
		<path d="M190.1,141.5c1.9-1.9,3-3.1,3-4.1c0-0.7-0.4-1.3-1.2-1.3c-0.5,0-1,0.3-1.4,0.8l-0.5-0.5c0.5-0.6,1.1-1,1.9-1
			c1.2,0,1.9,0.7,1.9,1.9c0,1.2-1.1,2.4-2.6,4c0.4,0,0.7-0.1,1.1-0.1h1.8v0.7h-4.1V141.5z"/>
	</g>
</g>
<g>
	<g>
		<path d="M277.6,21.3h-3.2v-0.7h4.1v0.5c-1.5,1.9-1.8,3.4-1.9,5.9h-0.8C275.8,24.6,276.3,23.1,277.6,21.3z"/>
		<path d="M279.6,25.7c0.4,0.4,0.9,0.7,1.6,0.7c0.8,0,1.4-0.6,1.4-1.5c0-0.9-0.5-1.4-1.4-1.4c-0.4,0-0.7,0.1-1.1,0.4l-0.4-0.3
			l0.2-3.1h3.2v0.7h-2.5l-0.2,1.9c0.3-0.2,0.6-0.3,1-0.3c1.1,0,2,0.6,2,2c0,1.4-1,2.2-2.1,2.2c-1,0-1.6-0.4-2.1-0.9L279.6,25.7z"/>
		<path d="M284.5,25.7c0.4,0.4,0.9,0.7,1.6,0.7c0.8,0,1.4-0.6,1.4-1.5c0-0.9-0.5-1.4-1.4-1.4c-0.4,0-0.7,0.1-1.1,0.4l-0.4-0.3
			l0.2-3.1h3.2v0.7h-2.5l-0.2,1.9c0.3-0.2,0.6-0.3,1-0.3c1.1,0,2,0.6,2,2c0,1.4-1,2.2-2.1,2.2c-1,0-1.6-0.4-2.1-0.9L284.5,25.7z"/>
	</g>
</g>
<g>
	<g>
		<path d="M277.6,145.7c-0.3-0.3-0.7-0.5-1-0.5c-0.9,0-1.6,0.7-1.7,2.7c0.4-0.5,1-0.8,1.5-0.8c1.1,0,1.8,0.7,1.8,2
			c0,1.2-0.9,2-1.9,2c-1.2,0-2.2-1-2.2-3.1c0-2.6,1.2-3.5,2.4-3.5c0.7,0,1.2,0.3,1.5,0.7L277.6,145.7z M277.4,149
			c0-0.8-0.4-1.3-1.2-1.3c-0.4,0-0.9,0.2-1.3,0.8c0.1,1.2,0.6,1.9,1.4,1.9C276.9,150.4,277.4,149.9,277.4,149z"/>
		<path d="M279.4,150.3h1.5v-4.7h-1.2v-0.5c0.6-0.1,1-0.3,1.3-0.5h0.6v5.7h1.3v0.7h-3.6V150.3z"/>
		<path d="M285.2,147.6L285.2,147.6c-0.5-0.4-0.9-0.8-0.9-1.5c0-1,0.8-1.6,1.8-1.6c1.1,0,1.8,0.7,1.8,1.7c0,0.7-0.5,1.2-0.9,1.5v0
			c0.6,0.3,1.1,0.8,1.1,1.6c0,0.9-0.8,1.7-2.1,1.7c-1.2,0-2.1-0.7-2.1-1.7C284,148.5,284.6,147.9,285.2,147.6z M286.1,150.5
			c0.7,0,1.2-0.5,1.2-1.1c0-0.8-0.8-1.1-1.7-1.5c-0.5,0.3-0.9,0.8-0.9,1.4C284.7,150,285.3,150.5,286.1,150.5z M287.2,146.2
			c0-0.6-0.4-1.1-1.1-1.1c-0.6,0-1,0.4-1,1c0,0.8,0.7,1.1,1.5,1.4C286.9,147.1,287.2,146.7,287.2,146.2z"/>
	</g>
</g>
<g>
	<g>
		<path d="M370.8,26.3h-3.2v-0.7h4.1v0.5c-1.5,1.9-1.8,3.4-1.9,5.9h-0.8C369,29.6,369.5,28.1,370.8,26.3z"/>
		<path d="M376.8,30.3h-0.9V32h-0.8v-1.8h-2.9v-0.5l2.7-4.1h0.9v4h0.9V30.3z M375.1,29.6v-1.8c0-0.3,0-0.9,0-1.2h0
			c-0.2,0.3-0.3,0.6-0.5,0.9l-1.5,2.2H375.1z"/>
		<path d="M377.9,31.3h1.5v-4.7h-1.2v-0.5c0.6-0.1,1-0.3,1.3-0.5h0.6v5.7h1.3V32h-3.6V31.3z"/>
	</g>
</g>
<g>
	<g>
		<path d="M371.8,145.7c-0.3-0.3-0.7-0.5-1-0.5c-0.9,0-1.6,0.7-1.7,2.7c0.4-0.5,1-0.8,1.5-0.8c1.1,0,1.8,0.7,1.8,2
			c0,1.2-0.9,2-1.9,2c-1.2,0-2.2-1-2.2-3.1c0-2.6,1.2-3.5,2.4-3.5c0.7,0,1.2,0.3,1.5,0.7L371.8,145.7z M371.6,149
			c0-0.8-0.4-1.3-1.2-1.3c-0.4,0-0.9,0.2-1.3,0.8c0.1,1.2,0.6,1.9,1.4,1.9C371.1,150.4,371.6,149.9,371.6,149z"/>
		<path d="M373.6,150.3h1.5v-4.7h-1.2v-0.5c0.6-0.1,1-0.3,1.3-0.5h0.6v5.7h1.3v0.7h-3.6V150.3z"/>
		<path d="M379.3,147.6L379.3,147.6c-0.5-0.4-0.9-0.8-0.9-1.5c0-1,0.8-1.6,1.8-1.6c1.1,0,1.8,0.7,1.8,1.7c0,0.7-0.5,1.2-0.9,1.5v0
			c0.6,0.3,1.1,0.8,1.1,1.6c0,0.9-0.8,1.7-2.1,1.7c-1.2,0-2.1-0.7-2.1-1.7C378.2,148.5,378.7,147.9,379.3,147.6z M380.3,150.5
			c0.7,0,1.2-0.5,1.2-1.1c0-0.8-0.8-1.1-1.7-1.5c-0.5,0.3-0.9,0.8-0.9,1.4C378.9,150,379.5,150.5,380.3,150.5z M381.4,146.2
			c0-0.6-0.4-1.1-1.1-1.1c-0.6,0-1,0.4-1,1c0,0.8,0.7,1.1,1.5,1.4C381.1,147.1,381.4,146.7,381.4,146.2z"/>
	</g>
</g>
<g>
	<g>
		<path d="M465.3,37.3h-3.2v-0.7h4.1v0.5c-1.5,1.9-1.8,3.4-1.9,5.9h-0.8C463.5,40.6,464,39.1,465.3,37.3z"/>
		<path d="M467.3,41.7c0.4,0.4,0.9,0.8,1.6,0.8c0.8,0,1.3-0.5,1.3-1.2c0-0.8-0.5-1.3-2-1.3v-0.6c1.4,0,1.8-0.5,1.8-1.2
			c0-0.6-0.4-1-1.1-1c-0.5,0-1,0.3-1.4,0.7l-0.4-0.5c0.5-0.5,1.1-0.8,1.8-0.8c1.1,0,1.9,0.6,1.9,1.6c0,0.8-0.5,1.3-1.2,1.5v0
			c0.8,0.2,1.4,0.7,1.4,1.6c0,1.1-0.9,1.8-2.1,1.8c-1,0-1.7-0.4-2.1-0.9L467.3,41.7z"/>
		<path d="M472.2,41.7c0.4,0.4,0.9,0.7,1.6,0.7c0.8,0,1.4-0.6,1.4-1.5c0-0.9-0.5-1.4-1.4-1.4c-0.4,0-0.7,0.1-1.1,0.4l-0.4-0.3
			l0.2-3.1h3.2v0.7h-2.5l-0.2,1.9c0.3-0.2,0.6-0.3,1-0.3c1.1,0,2,0.6,2,2c0,1.4-1,2.2-2.1,2.2c-1,0-1.6-0.4-2.1-0.9L472.2,41.7z"/>
	</g>
</g>
<g>
	<g>
		<path d="M466.3,153.7c-0.3-0.3-0.7-0.5-1-0.5c-0.9,0-1.6,0.7-1.7,2.7c0.4-0.5,1-0.8,1.5-0.8c1.1,0,1.8,0.7,1.8,2
			c0,1.2-0.9,2-1.9,2c-1.2,0-2.2-1-2.2-3.1c0-2.6,1.2-3.5,2.4-3.5c0.7,0,1.2,0.3,1.5,0.7L466.3,153.7z M466.1,157
			c0-0.8-0.4-1.3-1.2-1.3c-0.4,0-0.9,0.2-1.3,0.8c0.1,1.2,0.6,1.9,1.4,1.9C465.6,158.4,466.1,157.9,466.1,157z"/>
		<path d="M468.1,158.3h1.5v-4.7h-1.2v-0.5c0.6-0.1,1-0.3,1.3-0.5h0.6v5.7h1.3v0.7h-3.6V158.3z"/>
		<path d="M472.7,155.8c0-2.1,0.8-3.3,2-3.3c1.3,0,2,1.1,2,3.3s-0.8,3.3-2,3.3C473.5,159.1,472.7,157.9,472.7,155.8z M476,155.8
			c0-1.9-0.5-2.6-1.2-2.6c-0.7,0-1.2,0.8-1.2,2.6s0.5,2.7,1.2,2.7C475.5,158.4,476,157.6,476,155.8z"/>
	</g>
</g>
<g>
	<g>
		<path d="M559.3,46.9h-3.2v-0.7h4.1v0.5c-1.5,1.9-1.8,3.4-1.9,5.9h-0.8C557.6,50.2,558.1,48.7,559.3,46.9z"/>
		<path d="M561.1,52.1c1.9-1.9,3-3.1,3-4.1c0-0.7-0.4-1.3-1.2-1.3c-0.5,0-1,0.3-1.4,0.8l-0.5-0.5c0.5-0.6,1.1-1,1.9-1
			c1.2,0,1.9,0.7,1.9,1.9c0,1.2-1.1,2.4-2.6,4c0.3,0,0.7-0.1,1.1-0.1h1.8v0.7h-4.1V52.1z"/>
		<path d="M566.1,49.4c0-2.1,0.8-3.3,2-3.3c1.3,0,2,1.1,2,3.3s-0.8,3.3-2,3.3C566.8,52.7,566.1,51.5,566.1,49.4z M569.4,49.4
			c0-1.9-0.5-2.6-1.2-2.6c-0.7,0-1.2,0.8-1.2,2.6s0.5,2.7,1.2,2.7C568.9,52.1,569.4,51.3,569.4,49.4z"/>
	</g>
</g>
<g>
	<g>
		<path d="M560.3,137.7c-0.3-0.3-0.7-0.5-1-0.5c-0.9,0-1.6,0.7-1.7,2.7c0.4-0.5,1-0.8,1.5-0.8c1.1,0,1.8,0.7,1.8,2
			c0,1.2-0.9,2-1.9,2c-1.2,0-2.2-1-2.2-3.1c0-2.6,1.2-3.5,2.4-3.5c0.7,0,1.2,0.3,1.5,0.7L560.3,137.7z M560.1,141.1
			c0-0.8-0.4-1.3-1.2-1.3c-0.4,0-0.9,0.2-1.3,0.8c0.1,1.2,0.6,1.9,1.4,1.9C559.7,142.5,560.1,141.9,560.1,141.1z"/>
		<path d="M561.7,142.5c1.9-1.9,3-3.1,3-4.1c0-0.7-0.4-1.3-1.2-1.3c-0.5,0-1,0.3-1.4,0.8l-0.5-0.5c0.5-0.6,1.1-1,1.9-1
			c1.2,0,1.9,0.7,1.9,1.9c0,1.2-1.1,2.4-2.6,4c0.3,0,0.7-0.1,1.1-0.1h1.8v0.7h-4.1V142.5z"/>
		<path d="M571,141.2h-0.9v1.8h-0.8v-1.8h-2.9v-0.5l2.7-4.1h0.9v4h0.9V141.2z M569.3,140.6v-1.8c0-0.3,0-0.9,0-1.2h0
			c-0.2,0.3-0.3,0.6-0.5,0.9l-1.5,2.2H569.3z"/>
	</g>
</g>
<g>
	<g>
		<path d="M652.9,37.3h-3.2v-0.7h4.1v0.5c-1.5,1.9-1.8,3.4-1.9,5.9H651C651.1,40.6,651.6,39.1,652.9,37.3z"/>
		<path d="M654.9,41.7c0.4,0.4,0.9,0.8,1.6,0.8c0.8,0,1.3-0.5,1.3-1.2c0-0.8-0.5-1.3-2-1.3v-0.6c1.4,0,1.8-0.5,1.8-1.2
			c0-0.6-0.4-1-1.1-1c-0.5,0-1,0.3-1.4,0.7l-0.4-0.5c0.5-0.5,1.1-0.8,1.8-0.8c1.1,0,1.9,0.6,1.9,1.6c0,0.8-0.5,1.3-1.2,1.5v0
			c0.8,0.2,1.4,0.7,1.4,1.6c0,1.1-0.9,1.8-2.1,1.8c-1,0-1.7-0.4-2.1-0.9L654.9,41.7z"/>
		<path d="M663.9,41.3H663V43h-0.8v-1.8h-2.9v-0.5l2.7-4.1h0.9v4h0.9V41.3z M662.2,40.6v-1.8c0-0.3,0-0.9,0-1.2h0
			c-0.2,0.3-0.3,0.6-0.5,0.9l-1.5,2.2H662.2z"/>
	</g>
</g>
<g>
	<g>
		<path d="M653.9,137.7c-0.3-0.3-0.7-0.5-1-0.5c-0.9,0-1.6,0.7-1.7,2.7c0.4-0.5,1-0.8,1.5-0.8c1.1,0,1.8,0.7,1.8,2
			c0,1.2-0.9,2-1.9,2c-1.2,0-2.2-1-2.2-3.1c0-2.6,1.2-3.5,2.4-3.5c0.7,0,1.2,0.3,1.5,0.7L653.9,137.7z M653.7,141.1
			c0-0.8-0.4-1.3-1.2-1.3c-0.4,0-0.9,0.2-1.3,0.8c0.1,1.2,0.6,1.9,1.4,1.9C653.2,142.5,653.7,141.9,653.7,141.1z"/>
		<path d="M655.3,142.5c1.9-1.9,3-3.1,3-4.1c0-0.7-0.4-1.3-1.2-1.3c-0.5,0-1,0.3-1.4,0.8l-0.5-0.5c0.5-0.6,1.1-1,1.9-1
			c1.2,0,1.9,0.7,1.9,1.9c0,1.2-1.1,2.4-2.6,4c0.3,0,0.7-0.1,1.1-0.1h1.8v0.7h-4.1V142.5z"/>
		<path d="M660.5,141.7c0.4,0.4,0.9,0.8,1.6,0.8c0.8,0,1.3-0.5,1.3-1.2c0-0.8-0.5-1.3-2-1.3v-0.6c1.4,0,1.8-0.5,1.8-1.2
			c0-0.6-0.4-1-1.1-1c-0.5,0-1,0.3-1.4,0.7l-0.4-0.5c0.5-0.5,1.1-0.8,1.8-0.8c1.1,0,1.9,0.6,1.9,1.6c0,0.8-0.5,1.3-1.2,1.5v0
			c0.8,0.2,1.4,0.7,1.4,1.6c0,1.1-0.9,1.8-2.1,1.8c-1,0-1.7-0.4-2.1-0.9L660.5,141.7z"/>
	</g>
</g>
<g>
	<g>
		<path d="M747.4,26.9h-3.2v-0.7h4.1v0.5c-1.5,1.9-1.8,3.4-1.9,5.9h-0.8C745.7,30.2,746.1,28.7,747.4,26.9z"/>
		<path d="M753.4,30.8h-0.9v1.8h-0.8v-1.8h-2.9v-0.5l2.7-4.1h0.9v4h0.9V30.8z M751.8,30.2v-1.8c0-0.3,0-0.9,0-1.2h0
			c-0.2,0.3-0.3,0.6-0.5,0.9l-1.5,2.2H751.8z"/>
		<path d="M754.7,31.5c0.3,0.3,0.6,0.5,1,0.5c0.9,0,1.7-0.7,1.7-2.7c-0.4,0.5-1,0.8-1.5,0.8c-1.1,0-1.8-0.7-1.8-2c0-1.2,0.9-2,1.9-2
			c1.3,0,2.2,1,2.2,3.1c0,2.6-1.2,3.5-2.4,3.5c-0.7,0-1.2-0.3-1.5-0.7L754.7,31.5z M757.4,28.6c-0.1-1.2-0.6-1.9-1.4-1.9
			c-0.6,0-1.1,0.6-1.1,1.4c0,0.8,0.4,1.3,1.2,1.3C756.5,29.5,757,29.2,757.4,28.6z"/>
	</g>
</g>
<g>
	<g>
		<path d="M748.4,145.7c-0.3-0.3-0.7-0.5-1-0.5c-0.9,0-1.6,0.7-1.7,2.7c0.4-0.5,1-0.8,1.5-0.8c1.1,0,1.8,0.7,1.8,2
			c0,1.2-0.9,2-1.9,2c-1.2,0-2.2-1-2.2-3.1c0-2.6,1.2-3.5,2.4-3.5c0.7,0,1.2,0.3,1.5,0.7L748.4,145.7z M748.2,149.1
			c0-0.8-0.4-1.3-1.2-1.3c-0.4,0-0.9,0.2-1.3,0.8c0.1,1.2,0.6,1.9,1.4,1.9C747.8,150.5,748.2,149.9,748.2,149.1z"/>
		<path d="M750.2,150.3h1.5v-4.7h-1.2v-0.5c0.6-0.1,1-0.3,1.3-0.5h0.6v5.7h1.3v0.7h-3.6V150.3z"/>
		<path d="M754.8,147.8c0-2.1,0.8-3.3,2-3.3c1.3,0,2,1.1,2,3.3s-0.8,3.3-2,3.3C755.6,151.1,754.8,149.9,754.8,147.8z M758.1,147.8
			c0-1.9-0.5-2.6-1.2-2.6c-0.7,0-1.2,0.8-1.2,2.6s0.5,2.7,1.2,2.7C757.6,150.5,758.1,149.7,758.1,147.8z"/>
	</g>
</g>
<g>
	<g>
		<path d="M177.3,221.3c1.8-1.7,2.9-2.8,2.9-3.8c0-0.7-0.4-1.1-1-1.1c-0.5,0-0.9,0.3-1.2,0.7l-0.6-0.6c0.6-0.6,1.2-1,2-1
			c1.2,0,2,0.8,2,1.9c0,1.1-1,2.3-2.3,3.6c0.3,0,0.8-0.1,1.1-0.1h1.6v1h-4.3V221.3z"/>
		<path d="M182.5,218.8c0-2.1,0.8-3.3,2.2-3.3s2.2,1.1,2.2,3.3c0,2.1-0.8,3.3-2.2,3.3S182.5,220.9,182.5,218.8z M185.7,218.8
			c0-1.8-0.4-2.4-1.1-2.4c-0.6,0-1.1,0.6-1.1,2.4s0.5,2.4,1.1,2.4C185.3,221.2,185.7,220.6,185.7,218.8z"/>
		<path d="M188,221h1.4v-4.2h-1.2v-0.7c0.6-0.1,1.1-0.3,1.5-0.5h0.9v5.4h1.2v0.9H188V221z"/>
		<path d="M192.8,218.8c0-2.1,0.8-3.3,2.2-3.3s2.2,1.1,2.2,3.3c0,2.1-0.8,3.3-2.2,3.3S192.8,220.9,192.8,218.8z M196,218.8
			c0-1.8-0.4-2.4-1.1-2.4c-0.6,0-1.1,0.6-1.1,2.4s0.5,2.4,1.1,2.4C195.5,221.2,196,220.6,196,218.8z"/>
	</g>
</g>
<g>
	<g>
		<path d="M271.3,221.3c1.8-1.7,2.9-2.8,2.9-3.8c0-0.7-0.4-1.1-1-1.1c-0.5,0-0.9,0.3-1.2,0.7l-0.6-0.6c0.6-0.6,1.2-1,2-1
			c1.2,0,2,0.8,2,1.9c0,1.1-1,2.3-2.3,3.6c0.3,0,0.8-0.1,1.1-0.1h1.6v1h-4.3V221.3z"/>
		<path d="M276.5,218.8c0-2.1,0.8-3.3,2.2-3.3s2.2,1.1,2.2,3.3c0,2.1-0.8,3.3-2.2,3.3S276.5,220.9,276.5,218.8z M279.7,218.8
			c0-1.8-0.4-2.4-1.1-2.4c-0.6,0-1.1,0.6-1.1,2.4s0.5,2.4,1.1,2.4C279.3,221.2,279.7,220.6,279.7,218.8z"/>
		<path d="M282,221h1.4v-4.2h-1.2v-0.7c0.6-0.1,1.1-0.3,1.5-0.5h0.9v5.4h1.2v0.9H282V221z"/>
		<path d="M287.1,221h1.4v-4.2h-1.2v-0.7c0.6-0.1,1.1-0.3,1.5-0.5h0.9v5.4h1.2v0.9h-3.8V221z"/>
	</g>
</g>
<g>
	<g>
		<path d="M365.3,221.3c1.8-1.7,2.9-2.8,2.9-3.8c0-0.7-0.4-1.1-1-1.1c-0.5,0-0.9,0.3-1.2,0.7l-0.6-0.6c0.6-0.6,1.2-1,2-1
			c1.2,0,2,0.8,2,1.9c0,1.1-1,2.3-2.3,3.6c0.3,0,0.8-0.1,1.1-0.1h1.6v1h-4.3V221.3z"/>
		<path d="M370.5,218.8c0-2.1,0.8-3.3,2.2-3.3s2.2,1.1,2.2,3.3c0,2.1-0.8,3.3-2.2,3.3S370.5,220.9,370.5,218.8z M373.7,218.8
			c0-1.8-0.4-2.4-1.1-2.4c-0.6,0-1.1,0.6-1.1,2.4s0.5,2.4,1.1,2.4C373.3,221.2,373.7,220.6,373.7,218.8z"/>
		<path d="M376,221h1.4v-4.2h-1.2v-0.7c0.6-0.1,1.1-0.3,1.5-0.5h0.9v5.4h1.2v0.9H376V221z"/>
		<path d="M380.7,221.3c1.8-1.7,2.9-2.8,2.9-3.8c0-0.7-0.4-1.1-1-1.1c-0.5,0-0.9,0.3-1.2,0.7l-0.6-0.6c0.6-0.6,1.2-1,2-1
			c1.2,0,2,0.8,2,1.9c0,1.1-1,2.3-2.3,3.6c0.3,0,0.8-0.1,1.1-0.1h1.6v1h-4.3V221.3z"/>
	</g>
</g>
<g>
	<g>
		<path d="M459.4,221.3c1.8-1.7,2.9-2.8,2.9-3.8c0-0.7-0.4-1.1-1-1.1c-0.5,0-0.9,0.3-1.2,0.7l-0.6-0.6c0.6-0.6,1.2-1,2-1
			c1.2,0,2,0.8,2,1.9c0,1.1-1,2.3-2.3,3.6c0.3,0,0.8-0.1,1.1-0.1h1.6v1h-4.3V221.3z"/>
		<path d="M464.6,218.8c0-2.1,0.8-3.3,2.2-3.3s2.2,1.1,2.2,3.3c0,2.1-0.8,3.3-2.2,3.3S464.6,220.9,464.6,218.8z M467.8,218.8
			c0-1.8-0.4-2.4-1.1-2.4c-0.6,0-1.1,0.6-1.1,2.4s0.5,2.4,1.1,2.4C467.4,221.2,467.8,220.6,467.8,218.8z"/>
		<path d="M470.1,221h1.4v-4.2h-1.2v-0.7c0.6-0.1,1.1-0.3,1.5-0.5h0.9v5.4h1.2v0.9h-3.8V221z"/>
		<path d="M475.2,220.5c0.4,0.4,0.9,0.7,1.5,0.7c0.7,0,1.2-0.4,1.2-1c0-0.7-0.4-1.1-1.9-1.1v-0.8c1.2,0,1.7-0.4,1.7-1
			c0-0.5-0.4-0.8-0.9-0.8c-0.5,0-0.9,0.2-1.3,0.6l-0.6-0.7c0.5-0.5,1.1-0.8,1.9-0.8c1.2,0,2.1,0.6,2.1,1.7c0,0.7-0.4,1.2-1.1,1.5v0
			c0.7,0.2,1.3,0.7,1.3,1.6c0,1.2-1,1.8-2.2,1.8c-1,0-1.7-0.4-2.2-0.9L475.2,220.5z"/>
	</g>
</g>
<g>
	<g>
		<path d="M554.4,221.3c1.8-1.7,2.9-2.8,2.9-3.8c0-0.7-0.4-1.1-1-1.1c-0.5,0-0.9,0.3-1.2,0.7l-0.6-0.6c0.6-0.6,1.2-1,2-1
			c1.2,0,2,0.8,2,1.9c0,1.1-1,2.3-2.3,3.6c0.3,0,0.8-0.1,1.1-0.1h1.6v1h-4.3V221.3z"/>
		<path d="M559.6,218.8c0-2.1,0.8-3.3,2.2-3.3s2.2,1.1,2.2,3.3c0,2.1-0.8,3.3-2.2,3.3S559.6,220.9,559.6,218.8z M562.8,218.8
			c0-1.8-0.4-2.4-1.1-2.4c-0.6,0-1.1,0.6-1.1,2.4s0.5,2.4,1.1,2.4C562.4,221.2,562.8,220.6,562.8,218.8z"/>
		<path d="M565.1,221h1.4v-4.2h-1.2v-0.7c0.6-0.1,1.1-0.3,1.5-0.5h0.9v5.4h1.2v0.9h-3.8V221z"/>
		<path d="M574.3,220.3h-0.8v1.6h-1.1v-1.6h-2.8v-0.8l2.5-3.9h1.4v3.8h0.8V220.3z M572.4,219.4V218c0-0.4,0-0.9,0-1.3h0
			c-0.2,0.3-0.3,0.6-0.5,1l-1.2,1.8H572.4z"/>
	</g>
</g>
<g>
	<g>
		<path d="M647.7,221.3c1.8-1.7,2.9-2.8,2.9-3.8c0-0.7-0.4-1.1-1-1.1c-0.5,0-0.9,0.3-1.2,0.7l-0.6-0.6c0.6-0.6,1.2-1,2-1
			c1.2,0,2,0.8,2,1.9c0,1.1-1,2.3-2.3,3.6c0.3,0,0.8-0.1,1.1-0.1h1.6v1h-4.3V221.3z"/>
		<path d="M652.9,218.8c0-2.1,0.8-3.3,2.2-3.3s2.2,1.1,2.2,3.3c0,2.1-0.8,3.3-2.2,3.3S652.9,220.9,652.9,218.8z M656.1,218.8
			c0-1.8-0.4-2.4-1.1-2.4c-0.6,0-1.1,0.6-1.1,2.4s0.5,2.4,1.1,2.4C655.7,221.2,656.1,220.6,656.1,218.8z"/>
		<path d="M658.3,221h1.4v-4.2h-1.2v-0.7c0.6-0.1,1.1-0.3,1.5-0.5h0.9v5.4h1.2v0.9h-3.8V221z"/>
		<path d="M663.5,220.5c0.4,0.4,0.8,0.7,1.5,0.7c0.7,0,1.2-0.5,1.2-1.2c0-0.8-0.5-1.2-1.2-1.2c-0.4,0-0.6,0.1-1,0.4l-0.5-0.3
			l0.2-3.1h3.4v1h-2.4l-0.1,1.5c0.3-0.1,0.5-0.2,0.8-0.2c1.1,0,2,0.6,2,2c0,1.4-1.1,2.2-2.2,2.2c-1,0-1.7-0.4-2.2-0.9L663.5,220.5z"
			/>
	</g>
</g>
<g>
	<g>
		<path d="M741.7,221.3c1.8-1.7,2.9-2.8,2.9-3.8c0-0.7-0.4-1.1-1-1.1c-0.5,0-0.9,0.3-1.2,0.7l-0.6-0.6c0.6-0.6,1.2-1,2-1
			c1.2,0,2,0.8,2,1.9c0,1.1-1,2.3-2.3,3.6c0.3,0,0.8-0.1,1.1-0.1h1.6v1h-4.3V221.3z"/>
		<path d="M746.8,218.8c0-2.1,0.8-3.3,2.2-3.3s2.2,1.1,2.2,3.3c0,2.1-0.8,3.3-2.2,3.3S746.8,220.9,746.8,218.8z M750.1,218.8
			c0-1.8-0.4-2.4-1.1-2.4c-0.6,0-1.1,0.6-1.1,2.4s0.5,2.4,1.1,2.4C749.6,221.2,750.1,220.6,750.1,218.8z"/>
		<path d="M752.3,221h1.4v-4.2h-1.2v-0.7c0.6-0.1,1.1-0.3,1.5-0.5h0.9v5.4h1.2v0.9h-3.8V221z"/>
		<path d="M760.7,216.9c-0.2-0.3-0.6-0.5-1-0.5c-0.8,0-1.4,0.6-1.5,2.3c0.4-0.5,0.9-0.7,1.4-0.7c1.1,0,1.9,0.6,1.9,2
			c0,1.3-0.9,2.1-2,2.1c-1.2,0-2.3-1-2.3-3.1c0-2.5,1.2-3.5,2.5-3.5c0.8,0,1.3,0.3,1.7,0.7L760.7,216.9z M760.4,220
			c0-0.8-0.4-1.1-1-1.1c-0.4,0-0.8,0.2-1.1,0.7c0.1,1.1,0.6,1.6,1.2,1.6C760,221.2,760.4,220.8,760.4,220z"/>
	</g>
</g>
<g>
	<g>
		<path d="M807.1,205.4h-2.2l-0.5,1.8h-1.2l2.1-6.5h1.4l2.1,6.5h-1.2L807.1,205.4z M806.8,204.5l-0.2-0.8c-0.2-0.7-0.4-1.4-0.6-2.2
			h0c-0.2,0.7-0.4,1.5-0.6,2.2l-0.2,0.8H806.8z"/>
		<path d="M809.5,202.3h0.9l0.1,0.7h0c0.4-0.4,0.9-0.8,1.6-0.8c1,0,1.5,0.7,1.5,1.9v3.1h-1.1v-2.9c0-0.8-0.2-1.1-0.8-1.1
			c-0.4,0-0.7,0.2-1.1,0.6v3.4h-1.1V202.3z M811.2,200.2c0.5,0,0.8,0.5,1.2,0.5c0.2,0,0.3-0.2,0.4-0.5h0.6c-0.1,0.8-0.4,1.2-0.9,1.2
			c-0.5,0-0.8-0.5-1.2-0.5c-0.2,0-0.3,0.1-0.4,0.5h-0.6C810.3,200.7,810.7,200.2,811.2,200.2z"/>
		<path d="M817.1,202.2c1.2,0,2.3,0.9,2.3,2.6c0,1.6-1.1,2.6-2.3,2.6c-1.2,0-2.3-0.9-2.3-2.6C814.8,203.1,815.9,202.2,817.1,202.2z
			 M817.1,206.4c0.7,0,1.2-0.6,1.2-1.6c0-1-0.4-1.6-1.2-1.6s-1.1,0.6-1.1,1.6C816,205.7,816.4,206.4,817.1,206.4z"/>
	</g>
</g>
<g>
	<g>
		<path d="M19.7,162c0.4,0.4,0.9,0.7,1.6,0.7c0.8,0,1.4-0.5,1.4-1.3c0-0.8-0.5-1.3-1.3-1.3c-0.5,0-0.7,0.1-1.1,0.4l-0.6-0.4l0.2-3.5
			h3.7v1.1H21l-0.1,1.7c0.3-0.1,0.6-0.2,0.9-0.2c1.2,0,2.2,0.7,2.2,2.2c0,1.5-1.2,2.4-2.5,2.4c-1.1,0-1.9-0.5-2.4-1L19.7,162z"/>
		<path d="M26.2,160.1L26.2,160.1c-0.5-0.4-1-0.9-1-1.7c0-1.1,0.9-1.9,2.1-1.9c1.3,0,2.1,0.8,2.1,1.9c0,0.7-0.5,1.3-0.9,1.6v0
			c0.6,0.4,1.2,0.9,1.2,1.8c0,1.1-0.9,1.9-2.4,1.9c-1.4,0-2.4-0.8-2.4-1.9C24.9,161,25.5,160.4,26.2,160.1z M27.3,162.9
			c0.7,0,1.2-0.4,1.2-1c0-0.8-0.7-1-1.7-1.4c-0.4,0.3-0.8,0.8-0.8,1.3C26,162.5,26.6,162.9,27.3,162.9z M28.3,158.5
			c0-0.6-0.4-1.1-1-1.1c-0.5,0-1,0.4-1,1c0,0.7,0.6,1,1.4,1.3C28.1,159.4,28.3,159,28.3,158.5z"/>
		<path d="M30.6,160.2c0-2.4,0.9-3.6,2.4-3.6c1.5,0,2.4,1.2,2.4,3.6c0,2.4-0.9,3.7-2.4,3.7C31.5,163.8,30.6,162.5,30.6,160.2z
			 M34.1,160.2c0-2-0.5-2.6-1.2-2.6c-0.7,0-1.2,0.6-1.2,2.6s0.5,2.7,1.2,2.7C33.6,162.8,34.1,162.1,34.1,160.2z"/>
	</g>
</g>
<g>
	<g>
		<path d="M23.3,129.1c-0.3-0.3-0.7-0.5-1.1-0.5c-0.9,0-1.6,0.6-1.7,2.6c0.4-0.5,1-0.8,1.5-0.8c1.2,0,2,0.7,2,2.2
			c0,1.4-1,2.3-2.2,2.3c-1.4,0-2.5-1.1-2.5-3.4c0-2.7,1.3-3.8,2.8-3.8c0.8,0,1.5,0.4,1.9,0.8L23.3,129.1z M22.9,132.5
			c0-0.8-0.4-1.2-1.1-1.2c-0.4,0-0.9,0.2-1.3,0.8c0.1,1.2,0.6,1.8,1.3,1.8C22.4,133.8,22.9,133.4,22.9,132.5z"/>
		<path d="M24.9,133.9c1.9-1.9,3.2-3.1,3.2-4.2c0-0.7-0.4-1.2-1.2-1.2c-0.5,0-1,0.4-1.4,0.8l-0.7-0.7c0.6-0.7,1.3-1.1,2.2-1.1
			c1.3,0,2.2,0.8,2.2,2.1c0,1.2-1.2,2.5-2.5,4c0.4,0,0.8-0.1,1.2-0.1h1.7v1.1h-4.7V133.9z"/>
		<path d="M30.6,131.2c0-2.4,0.9-3.6,2.4-3.6c1.5,0,2.4,1.2,2.4,3.6c0,2.4-0.9,3.7-2.4,3.7C31.5,134.8,30.6,133.5,30.6,131.2z
			 M34.1,131.2c0-2-0.5-2.6-1.2-2.6c-0.7,0-1.2,0.6-1.2,2.6s0.5,2.7,1.2,2.7C33.6,133.8,34.1,133.1,34.1,131.2z"/>
	</g>
</g>
<g>
	<g>
		<path d="M23.3,114.4c-0.3-0.3-0.7-0.5-1.1-0.5c-0.9,0-1.6,0.6-1.7,2.6c0.4-0.5,1-0.8,1.5-0.8c1.2,0,2,0.7,2,2.2
			c0,1.4-1,2.3-2.2,2.3c-1.4,0-2.5-1.1-2.5-3.4c0-2.7,1.3-3.8,2.8-3.8c0.8,0,1.5,0.4,1.9,0.8L23.3,114.4z M22.9,117.8
			c0-0.8-0.4-1.2-1.1-1.2c-0.4,0-0.9,0.2-1.3,0.8c0.1,1.2,0.6,1.8,1.3,1.8C22.4,119.1,22.9,118.6,22.9,117.8z"/>
		<path d="M29.8,118.2H29v1.8h-1.2v-1.8h-3.1v-0.9l2.8-4.3H29v4.2h0.9V118.2z M27.8,117.2v-1.6c0-0.4,0-1,0.1-1.5h0
			c-0.2,0.4-0.4,0.7-0.6,1.1l-1.3,1.9H27.8z"/>
		<path d="M30.6,116.4c0-2.4,0.9-3.6,2.4-3.6c1.5,0,2.4,1.2,2.4,3.6c0,2.4-0.9,3.7-2.4,3.7C31.5,120.1,30.6,118.8,30.6,116.4z
			 M34.1,116.4c0-2-0.5-2.6-1.2-2.6c-0.7,0-1.2,0.6-1.2,2.6s0.5,2.7,1.2,2.7C33.6,119.1,34.1,118.4,34.1,116.4z"/>
	</g>
</g>
<g>
	<g>
		<path d="M22.6,71.3h-3.3v-1.1H24V71c-1.6,2-1.9,3.5-2,6.2h-1.3C20.8,74.7,21.3,73.1,22.6,71.3z"/>
		<path d="M24.9,73.7c0-2.4,0.9-3.6,2.4-3.6s2.4,1.2,2.4,3.6c0,2.4-0.9,3.7-2.4,3.7S24.9,76,24.9,73.7z M28.5,73.7
			c0-2-0.5-2.6-1.2-2.6c-0.7,0-1.2,0.6-1.2,2.6s0.5,2.7,1.2,2.7C28,76.3,28.5,75.6,28.5,73.7z"/>
		<path d="M30.6,73.7c0-2.4,0.9-3.6,2.4-3.6c1.5,0,2.4,1.2,2.4,3.6c0,2.4-0.9,3.7-2.4,3.7C31.5,77.3,30.6,76,30.6,73.7z M34.1,73.7
			c0-2-0.5-2.6-1.2-2.6c-0.7,0-1.2,0.6-1.2,2.6s0.5,2.7,1.2,2.7C33.6,76.3,34.1,75.6,34.1,73.7z"/>
	</g>
</g>
<g>
	<g>
		<path d="M23.3,101.1c-0.3-0.3-0.7-0.5-1.1-0.5c-0.9,0-1.6,0.6-1.7,2.6c0.4-0.5,1-0.8,1.5-0.8c1.2,0,2,0.7,2,2.2
			c0,1.4-1,2.3-2.2,2.3c-1.4,0-2.5-1.1-2.5-3.4c0-2.7,1.3-3.8,2.8-3.8c0.8,0,1.5,0.4,1.9,0.8L23.3,101.1z M22.9,104.5
			c0-0.8-0.4-1.2-1.1-1.2c-0.4,0-0.9,0.2-1.3,0.8c0.1,1.2,0.6,1.8,1.3,1.8C22.4,105.8,22.9,105.4,22.9,104.5z"/>
		<path d="M28.9,101.1c-0.3-0.3-0.7-0.5-1.1-0.5c-0.9,0-1.6,0.6-1.7,2.6c0.4-0.5,1-0.8,1.5-0.8c1.2,0,2,0.7,2,2.2
			c0,1.4-1,2.3-2.2,2.3c-1.4,0-2.5-1.1-2.5-3.4c0-2.7,1.3-3.8,2.8-3.8c0.8,0,1.5,0.4,1.9,0.8L28.9,101.1z M28.5,104.5
			c0-0.8-0.4-1.2-1.1-1.2c-0.4,0-0.9,0.2-1.3,0.8c0.1,1.2,0.6,1.8,1.3,1.8C28.1,105.8,28.5,105.4,28.5,104.5z"/>
		<path d="M30.6,103.2c0-2.4,0.9-3.6,2.4-3.6c1.5,0,2.4,1.2,2.4,3.6c0,2.4-0.9,3.7-2.4,3.7C31.5,106.8,30.6,105.5,30.6,103.2z
			 M34.1,103.2c0-2-0.5-2.6-1.2-2.6c-0.7,0-1.2,0.6-1.2,2.6s0.5,2.7,1.2,2.7C33.6,105.8,34.1,105.1,34.1,103.2z"/>
	</g>
</g>
<g>
	<g>
		<path d="M23.3,86.1c-0.3-0.3-0.7-0.5-1.1-0.5c-0.9,0-1.6,0.6-1.7,2.6c0.4-0.5,1-0.8,1.5-0.8c1.2,0,2,0.7,2,2.2
			c0,1.4-1,2.3-2.2,2.3c-1.4,0-2.5-1.1-2.5-3.4c0-2.7,1.3-3.8,2.8-3.8c0.8,0,1.5,0.4,1.9,0.8L23.3,86.1z M22.9,89.5
			c0-0.8-0.4-1.2-1.1-1.2c-0.4,0-0.9,0.2-1.3,0.8c0.1,1.2,0.6,1.8,1.3,1.8C22.4,90.8,22.9,90.4,22.9,89.5z"/>
		<path d="M26.2,88.1L26.2,88.1c-0.5-0.4-1-0.9-1-1.7c0-1.1,0.9-1.9,2.1-1.9c1.3,0,2.1,0.8,2.1,1.9c0,0.7-0.5,1.3-0.9,1.6v0
			c0.6,0.4,1.2,0.9,1.2,1.8c0,1.1-0.9,1.9-2.4,1.9c-1.4,0-2.4-0.8-2.4-1.9C24.9,89,25.5,88.4,26.2,88.1z M27.3,90.9
			c0.7,0,1.2-0.4,1.2-1c0-0.8-0.7-1-1.7-1.4c-0.4,0.3-0.8,0.8-0.8,1.3C26,90.5,26.6,90.9,27.3,90.9z M28.3,86.5c0-0.6-0.4-1.1-1-1.1
			c-0.5,0-1,0.4-1,1c0,0.7,0.6,1,1.4,1.3C28.1,87.4,28.3,87,28.3,86.5z"/>
		<path d="M30.6,88.2c0-2.4,0.9-3.6,2.4-3.6c1.5,0,2.4,1.2,2.4,3.6c0,2.4-0.9,3.7-2.4,3.7C31.5,91.8,30.6,90.5,30.6,88.2z
			 M34.1,88.2c0-2-0.5-2.6-1.2-2.6c-0.7,0-1.2,0.6-1.2,2.6s0.5,2.7,1.2,2.7C33.6,90.8,34.1,90.1,34.1,88.2z"/>
	</g>
</g>
<g>
	<g>
		<path d="M22.6,56.8h-3.3v-1.1H24v0.8c-1.6,2-1.9,3.5-2,6.2h-1.3C20.8,60.2,21.3,58.6,22.6,56.8z"/>
		<path d="M24.9,61.9c1.9-1.9,3.2-3.1,3.2-4.2c0-0.7-0.4-1.2-1.2-1.2c-0.5,0-1,0.4-1.4,0.8l-0.7-0.7c0.6-0.7,1.3-1.1,2.2-1.1
			c1.3,0,2.2,0.8,2.2,2.1c0,1.2-1.2,2.5-2.5,4c0.4,0,0.8-0.1,1.2-0.1h1.7v1.1h-4.7V61.9z"/>
		<path d="M30.6,59.2c0-2.4,0.9-3.6,2.4-3.6c1.5,0,2.4,1.2,2.4,3.6c0,2.4-0.9,3.7-2.4,3.7C31.5,62.8,30.6,61.5,30.6,59.2z
			 M34.1,59.2c0-2-0.5-2.6-1.2-2.6c-0.7,0-1.2,0.6-1.2,2.6s0.5,2.7,1.2,2.7C33.6,61.8,34.1,61.1,34.1,59.2z"/>
	</g>
</g>
<g>
	<g>
		<path d="M22.6,43h-3.3V42H24v0.8c-1.6,2-1.9,3.5-2,6.2h-1.3C20.8,46.5,21.3,44.9,22.6,43z"/>
		<path d="M29.8,47.2H29V49h-1.2v-1.8h-3.1v-0.9l2.8-4.3H29v4.2h0.9V47.2z M27.8,46.2v-1.6c0-0.4,0-1,0.1-1.5h0
			c-0.2,0.4-0.4,0.7-0.6,1.1l-1.3,1.9H27.8z"/>
		<path d="M30.6,45.4c0-2.4,0.9-3.6,2.4-3.6c1.5,0,2.4,1.2,2.4,3.6c0,2.4-0.9,3.7-2.4,3.7C31.5,49.1,30.6,47.8,30.6,45.4z
			 M34.1,45.4c0-2-0.5-2.6-1.2-2.6c-0.7,0-1.2,0.6-1.2,2.6s0.5,2.7,1.2,2.7C33.6,48.1,34.1,47.4,34.1,45.4z"/>
	</g>
</g>
<g>
	<g>
		<path d="M7.6,25.7v1.7H6.3v-7.5h1l0.1,0.6h0c0.5-0.4,1-0.7,1.6-0.7c1.3,0,2.1,1.1,2.1,2.8c0,1.8-1.1,2.9-2.3,2.9
			c-0.5,0-0.9-0.2-1.4-0.6L7.6,25.7z M8.7,24.4c0.7,0,1.3-0.6,1.3-1.9c0-1.1-0.4-1.7-1.2-1.7c-0.4,0-0.8,0.2-1.2,0.6v2.5
			C8,24.3,8.3,24.4,8.7,24.4z"/>
		<path d="M12.5,19.9h1.3v3.2c0,0.9,0.3,1.2,0.8,1.2c0.5,0,0.8-0.2,1.2-0.7v-3.7H17v5.4h-1l-0.1-0.8h0c-0.5,0.6-1,0.9-1.7,0.9
			c-1.2,0-1.7-0.8-1.7-2.1V19.9z"/>
		<path d="M18.6,19.9h1l0.1,0.7h0c0.5-0.5,1-0.9,1.8-0.9c1.2,0,1.7,0.8,1.7,2.1v3.4H22v-3.2c0-0.9-0.3-1.2-0.8-1.2
			c-0.5,0-0.8,0.2-1.2,0.7v3.8h-1.3V19.9z"/>
		<path d="M25,20.9h-0.8v-0.9l0.8-0.1l0.2-1.5h1.1v1.5h1.4v1h-1.4v2.6c0,0.6,0.2,0.9,0.8,0.9c0.2,0,0.4-0.1,0.6-0.1l0.2,0.9
			c-0.3,0.1-0.7,0.2-1.1,0.2c-1.3,0-1.7-0.8-1.7-2V20.9z"/>
		<path d="M31.5,21.8c0-0.6-0.3-1.1-1-1.1c-0.5,0-1,0.2-1.5,0.5l-0.5-0.8c0.6-0.4,1.4-0.7,2.2-0.7c1.4,0,2,0.8,2,2.3v3.2h-1
			l-0.1-0.6h0c-0.5,0.4-1,0.7-1.7,0.7c-0.9,0-1.6-0.6-1.6-1.6C28.4,22.7,29.3,22.1,31.5,21.8z M30.4,24.4c0.4,0,0.8-0.2,1.2-0.6
			v-1.2c-1.5,0.2-1.9,0.6-1.9,1.1C29.6,24.2,29.9,24.4,30.4,24.4z"/>
		<path d="M34.4,19.9h1.3v5.7c0,1.1-0.4,2-1.7,2c-0.4,0-0.7-0.1-0.9-0.1l0.2-0.9c0.1,0,0.3,0.1,0.5,0.1c0.5,0,0.6-0.3,0.6-1V19.9z
			 M34.2,18.2c0-0.4,0.3-0.7,0.8-0.7c0.5,0,0.8,0.3,0.8,0.7c0,0.4-0.3,0.7-0.8,0.7C34.6,18.9,34.2,18.6,34.2,18.2z"/>
		<path d="M39.4,19.8c1.5,0,2.2,1.1,2.2,2.6c0,0.2,0,0.5-0.1,0.6h-3.4c0.1,1,0.7,1.5,1.6,1.5c0.5,0,0.9-0.1,1.3-0.4l0.4,0.8
			c-0.5,0.3-1.2,0.6-1.8,0.6c-1.5,0-2.7-1-2.7-2.8C36.9,20.8,38.1,19.8,39.4,19.8z M40.5,22.1c0-0.9-0.4-1.4-1.1-1.4
			c-0.6,0-1.2,0.5-1.3,1.4H40.5z"/>
		<path d="M42.9,23.9c0.5,0.4,0.9,0.6,1.5,0.6c0.6,0,0.9-0.3,0.9-0.6c0-0.5-0.6-0.6-1.2-0.9c-0.7-0.3-1.5-0.7-1.5-1.6
			c0-0.9,0.8-1.6,2-1.6c0.7,0,1.4,0.3,1.8,0.6l-0.6,0.8c-0.4-0.3-0.8-0.5-1.2-0.5c-0.5,0-0.8,0.3-0.8,0.6c0,0.4,0.5,0.6,1.1,0.8
			c0.7,0.3,1.6,0.6,1.6,1.6c0,0.9-0.7,1.7-2.1,1.7c-0.7,0-1.5-0.3-2-0.7L42.9,23.9z"/>
	</g>
</g>
<path class="st9" d="M50.8,64.9c28.3-0.2,56.5-0.2,84.8,0c0.1,24.2,0.4,40.7,0.1,65c-28.2,0.4-56.5,0.2-84.7,0.1
	C50.5,114.4,50.6,73.6,50.8,64.9z"/>
<g>
	<rect x="-131.1" y="-444.6" class="st6" width="40" height="40"/>
	<rect x="-103.8" y="-444.6" class="st7" width="40" height="40"/>
	<rect x="-76.4" y="-444.6" class="st5" width="40" height="40"/>
	<rect x="-49.1" y="-444.6" class="st4" width="40" height="40"/>
</g>
<g>
	<rect x="-22.7" y="-444.6" class="st4" width="40" height="40"/>
	<rect x="6.2" y="-444.6" class="st2" width="40" height="40"/>
	<rect x="35.1" y="-444.6" class="st3" width="40" height="40"/>
	<rect x="64" y="-444.6" class="st9" width="40" height="40"/>
</g>
<g>
	<rect x="-160.1" y="-442.9" class="st6" width="36.7" height="36.7"/>
	<rect x="-180.3" y="-442.9" class="st1" width="36.7" height="36.7"/>
	<rect x="-200.6" y="-442.9" class="st10" width="36.7" height="36.7"/>
	<rect x="-220.8" y="-442.9" class="st11" width="36.7" height="36.7"/>
</g>
</svg>
